ISO-10303-21;
HEADER;
FILE_DESCRIPTION(('ViewDefinition [CoordinationView_V2.0]','RevitIdentifiers [ContentGUID: 1229d071-acdd-461d-a5d9-81fe2ffd753f, VersionGUID: a616bb8f-7188-4e64-8295-b8ea35cda1b2, NumberOfSaves: 0]','CoordinateReference [CoordinateBase: Shared Coordinates, ProjectSite: Default Site]'),'2;1');
FILE_NAME('Example_STR.ifc','2026-04-01T20:52:21+01:00',(''),(''),'ODA SDAI 24.6','Autodesk Revit 24.3.40.26 (ENU) - IFC 24.3.40.26','');
FILE_SCHEMA(('IFC2X3'));
ENDSEC;

DATA;
#1=IFCORGANIZATION($,'Autodesk Revit 2024 (ENU)',$,$,$);
#2=IFCAPPLICATION(#1,'2024','Autodesk Revit 2024 (ENU)','Revit');
#3=IFCCARTESIANPOINT((0.,0.,0.));
#4=IFCCARTESIANPOINT((0.,0.));
#5=IFCDIRECTION((1.,0.,0.));
#6=IFCDIRECTION((-1.,0.,0.));
#7=IFCDIRECTION((0.,1.,0.));
#8=IFCDIRECTION((0.,-1.,0.));
#9=IFCDIRECTION((0.,0.,1.));
#10=IFCDIRECTION((0.,0.,-1.));
#11=IFCDIRECTION((1.,0.));
#12=IFCDIRECTION((-1.,0.));
#13=IFCDIRECTION((0.,1.));
#14=IFCDIRECTION((0.,-1.));
#15=IFCPERSON($,'','gw.bang',$,$,$,$,$);
#16=IFCORGANIZATION($,'Organization Name','Organization Description',$,$);
#17=IFCPERSONANDORGANIZATION(#15,#16,$);
#18=IFCOWNERHISTORY(#17,#2,$,.NOCHANGE.,$,$,$,1775069540);
#19=IFCSIUNIT(*,.LENGTHUNIT.,.MILLI.,.METRE.);
#20=IFCAXIS2PLACEMENT3D(#3,$,$);
#21=IFCDIRECTION((6.1230317691118863E-17,1.));
#22=IFCGEOMETRICREPRESENTATIONCONTEXT($,'Model',3,0.01,#20,#21);
#23=IFCGEOMETRICREPRESENTATIONSUBCONTEXT('Axis','Model',*,*,*,*,#22,$,.GRAPH_VIEW.,$);
#24=IFCGEOMETRICREPRESENTATIONSUBCONTEXT('Body','Model',*,*,*,*,#22,$,.MODEL_VIEW.,$);
#25=IFCGEOMETRICREPRESENTATIONSUBCONTEXT('Box','Model',*,*,*,*,#22,$,.MODEL_VIEW.,$);
#26=IFCGEOMETRICREPRESENTATIONSUBCONTEXT('FootPrint','Model',*,*,*,*,#22,$,.MODEL_VIEW.,$);
#27=IFCPROJECT('1NNk23r4fCdBG4Kwzz8Urx',#18,'Project Number',$,$,'Project Name','Project Status',(#22),#1644);
#28=IFCCLASSIFICATION('CSI (Construction Specifications Institute)','1998',$,'Uniformat');
#29=IFCAXIS2PLACEMENT3D(#3,$,$);
#30=IFCLOCALPLACEMENT(#69,#29);
#31=IFCPOSTALADDRESS($,$,$,$,('Enter address hereAddress Line 2'),$,'','','','Boston MA');
#32=IFCBUILDING('1NNk23r4fCdBG4Kwzz8Urw',#18,'Building Name',$,$,#30,$,'Building Name',.ELEMENT.,$,$,#31);
#33=IFCCARTESIANPOINT((0.,0.,-600.));
#34=IFCAXIS2PLACEMENT3D(#33,$,$);
#35=IFCLOCALPLACEMENT(#30,#34);
#36=IFCBUILDINGSTOREY('1iDZV_Brn0Z9GW0EFhImMT',#18,'Pipe depth (hot)',$,'Level:1/4" Head',#35,$,'Pipe depth (hot)',.ELEMENT.,-600.);
#37=IFCCARTESIANPOINT((0.,0.,-500.));
#38=IFCAXIS2PLACEMENT3D(#37,$,$);
#39=IFCLOCALPLACEMENT(#30,#38);
#40=IFCBUILDINGSTOREY('1iDZV_Brn0Z9GW0EFhIn1x',#18,'Pipe depth (cold)',$,'Level:1/4" Head',#39,$,'Pipe depth (cold)',.ELEMENT.,-500.00000000000011);
#41=IFCAXIS2PLACEMENT3D(#3,$,$);
#42=IFCLOCALPLACEMENT(#30,#41);
#43=IFCBUILDINGSTOREY('2JF4e6axWHqu3u0C1FZlmi',#18,'L1',$,'Level:1/4" Head',#42,$,'L1',.ELEMENT.,0.);
#44=IFCCARTESIANPOINT((0.,0.,300.));
#45=IFCAXIS2PLACEMENT3D(#44,$,$);
#46=IFCLOCALPLACEMENT(#30,#45);
#47=IFCBUILDINGSTOREY('2AhLRpNSP4f8mRIjrLfMuD',#18,'Receptacle level',$,'Level:1/4" Head',#46,$,'Receptacle level',.ELEMENT.,299.99999999999613);
#48=IFCCARTESIANPOINT((0.,0.,900.));
#49=IFCAXIS2PLACEMENT3D(#48,$,$);
#50=IFCLOCALPLACEMENT(#30,#49);
#51=IFCBUILDINGSTOREY('1iDZV_Brn0Z9GW0EFhIosK',#18,'Sink height',$,'Level:1/4" Head',#50,$,'Sink height',.ELEMENT.,900.00000000000023);
#52=IFCCARTESIANPOINT((0.,0.,1200.));
#53=IFCAXIS2PLACEMENT3D(#52,$,$);
#54=IFCLOCALPLACEMENT(#30,#53);
#55=IFCBUILDINGSTOREY('2AhLRpNSP4f8mRIjrLfMod',#18,'Switch level',$,'Level:1/4" Head',#54,$,'Switch level',.ELEMENT.,1199.9999999999964);
#56=IFCCARTESIANPOINT((0.,0.,2300.));
#57=IFCAXIS2PLACEMENT3D(#56,$,$);
#58=IFCLOCALPLACEMENT(#30,#57);
#59=IFCBUILDINGSTOREY('20rBv4HojAY8M3avWLHA33',#18,'L3',$,'Level:1/4" Head',#58,$,'L3',.ELEMENT.,2300.0000000000091);
#60=IFCCARTESIANPOINT((0.,0.,3000.));
#61=IFCAXIS2PLACEMENT3D(#60,$,$);
#62=IFCLOCALPLACEMENT(#30,#61);
#63=IFCBUILDINGSTOREY('1ZGO8hrFCHqw0v0026FpFv',#18,'L2',$,'Level:1/4" Head',#62,$,'L2',.ELEMENT.,3000.);
#64=IFCCARTESIANPOINT((0.,0.,3300.));
#65=IFCAXIS2PLACEMENT3D(#64,$,$);
#66=IFCLOCALPLACEMENT(#30,#65);
#67=IFCBUILDINGSTOREY('1iDZV_Brn0Z9GW0EFhInC2',#18,'Pipe height',$,'Level:1/4" Head',#66,$,'Pipe height',.ELEMENT.,3300.);
#68=IFCAXIS2PLACEMENT3D(#3,$,$);
#69=IFCLOCALPLACEMENT($,#68);
#70=IFCSITE('1NNk23r4fCdBG4Kwzz8Urv',#18,'Default',$,$,#69,$,$,.ELEMENT.,(42,21,31,401672),(-71,-3,-24,-345703),0.,$,$);
#71=IFCAXIS2PLACEMENT3D(#3,$,$);
#73=IFCAXIS2PLACEMENT3D(#3,$,$);
#75=IFCAXIS2PLACEMENT3D(#3,$,$);
#77=IFCAXIS2PLACEMENT3D(#3,$,$);
#79=IFCAXIS2PLACEMENT3D(#3,$,$);
#81=IFCAXIS2PLACEMENT3D(#3,$,$);
#83=IFCAXIS2PLACEMENT3D(#3,$,$);
#85=IFCAXIS2PLACEMENT3D(#3,$,$);
#87=IFCAXIS2PLACEMENT3D(#3,$,$);
#89=IFCAXIS2PLACEMENT3D(#3,$,$);
#91=IFCCARTESIANPOINT((3945.,7041.5,0.));
#92=IFCAXIS2PLACEMENT3D(#91,#9,#8);
#93=IFCLOCALPLACEMENT(#42,#92);
#94=IFCCARTESIANPOINT((8083.,0.));
#95=IFCPOLYLINE((#4,#94));
#96=IFCSHAPEREPRESENTATION(#23,'Axis','Curve2D',(#95));
#97=IFCSIUNIT(*,.AREAUNIT.,$,.SQUARE_METRE.);
#98=IFCCARTESIANPOINT((4041.5,0.));
#99=IFCAXIS2PLACEMENT2D(#98,#12);
#100=IFCRECTANGLEPROFILEDEF(.AREA.,$,#99,8083.,193.00000000000051);
#101=IFCAXIS2PLACEMENT3D(#3,$,$);
#102=IFCEXTRUDEDAREASOLID(#100,#101,#9,3000.);
#103=IFCCOLOURRGB($,0.59999999999999998,0.58823529411764708,0.55686274509803924);
#104=IFCSURFACESTYLERENDERING(#103,0.,$,$,$,$,IFCNORMALISEDRATIOMEASURE(0.5),IFCSPECULAREXPONENT(128.),.NOTDEFINED.);
#105=IFCSURFACESTYLE('Concrete Masonry Units',.BOTH.,(#104));
#106=IFCPRESENTATIONSTYLEASSIGNMENT((#105));
#107=IFCSTYLEDITEM(#102,(#106),$);
#108=IFCSHAPEREPRESENTATION(#24,'Body','SweptSolid',(#102));
#109=IFCPRODUCTDEFINITIONSHAPE($,$,(#96,#108));
#110=IFCWALLSTANDARDCASE('3S3VgMDFLDiPHeIJPk5HTj',#18,'Basic Wall:Basic wall ex:1200689',$,'Basic Wall:Basic wall ex',#93,#109,'1200383');
#111=IFCMATERIAL('Concrete Masonry Units');
#112=IFCPRESENTATIONSTYLEASSIGNMENT((#105));
#113=IFCSTYLEDITEM($,(#112),$);
#114=IFCSTYLEDREPRESENTATION(#22,'Style','Material',(#113));
#115=IFCMATERIALDEFINITIONREPRESENTATION($,$,(#114),#111);
#116=IFCMATERIALLAYER(#111,193.,$);
#117=IFCMATERIALLAYERSET((#116),'Basic Wall:Basic Wall:Basic Wall:Basic Wall:Exterior wall');
#118=IFCMATERIALLAYERSETUSAGE(#117,.AXIS2.,.NEGATIVE.,96.5);
#119=IFCWALLTYPE('2c5hkFSOXEP8ALkEert$4Y',#18,'Basic Wall:Basic Wall:Basic Wall:Basic Wall:Exterior wall',$,$,(#132,#141),$,'1200272',$,.STANDARD.);
#120=IFCPROPERTYSINGLEVALUE('Reference',$,IFCIDENTIFIER('Basic wall ex'),$);
#121=IFCPROPERTYSET('1UKxYH0LlImedwAvDZoNwt',#18,'Pset_QuantityTakeOff',$,(#120));
#122=IFCPROPERTYSINGLEVALUE('Reference',$,IFCLABEL('Basic wall ex'),$);
#123=IFCPROPERTYSET('0pXAETYqp_EaaijaECPla$',#18,'Pset_ReinforcementBarPitchOfWall',$,(#122));
#124=IFCPROPERTYSINGLEVALUE('IsExternal',$,IFCBOOLEAN(.T.),$);
#125=IFCPROPERTYSINGLEVALUE('ExtendToStructure',$,IFCBOOLEAN(.F.),$);
#126=IFCPROPERTYSINGLEVALUE('LoadBearing',$,IFCBOOLEAN(.T.),$);
#127=IFCPROPERTYSET('3LW_hk9SFgoLw1m2Pzsbe2',#18,'Pset_WallCommon',$,(#120,#124,#125,#126));
#128=IFCRELDEFINESBYPROPERTIES('0Pf1KhERkJVNO9rQqmKmuZ',#18,$,$,(#110),#121);
#129=IFCRELDEFINESBYPROPERTIES('2_LsDJv5f6PlRE57XYJGdu',#18,$,$,(#110),#123);
#130=IFCRELDEFINESBYPROPERTIES('043DDjROgm$s$A0fNdyNyd',#18,$,$,(#110),#127);
#131=IFCPROPERTYSINGLEVALUE('Description',$,IFCTEXT('Generic Wall (Material By Category), 8" thick'),$);
#132=IFCPROPERTYSET('3lbYnlxs2mWcubJnYNVFbu',#18,'Pset_ReinforcementBarPitchOfWall',$,(#131));
#133=IFCSIUNIT(*,.MASSUNIT.,.KILO.,.GRAM.);
#134=IFCDERIVEDUNITELEMENT(#133,1);
#135=IFCSIUNIT(*,.THERMODYNAMICTEMPERATUREUNIT.,$,.KELVIN.);
#136=IFCDERIVEDUNITELEMENT(#135,-1);
#137=IFCSIUNIT(*,.TIMEUNIT.,$,.SECOND.);
#138=IFCDERIVEDUNITELEMENT(#137,-3);
#139=IFCDERIVEDUNIT((#134,#136,#138),.THERMALTRANSMITTANCEUNIT.,$);
#140=IFCPROPERTYSINGLEVALUE('ThermalTransmittance',$,IFCTHERMALTRANSMITTANCEMEASURE(0.22665361663344197),$);
#141=IFCPROPERTYSET('0eAzpPq8ceRGiWsUpcNYVN',#18,'Pset_WallCommon',$,(#140));
#142=IFCCARTESIANPOINT((3848.5000000000009,-945.,0.));
#143=IFCAXIS2PLACEMENT3D(#142,#9,#6);
#144=IFCLOCALPLACEMENT(#42,#143);
#145=IFCCARTESIANPOINT((7890.,0.));
#146=IFCPOLYLINE((#4,#145));
#147=IFCSHAPEREPRESENTATION(#23,'Axis','Curve2D',(#146));
#148=IFCCARTESIANPOINT((3945.0000000000009,0.));
#149=IFCAXIS2PLACEMENT2D(#148,#12);
#150=IFCRECTANGLEPROFILEDEF(.AREA.,$,#149,7890.0000000000018,192.99999999999997);
#151=IFCAXIS2PLACEMENT3D(#3,$,$);
#152=IFCEXTRUDEDAREASOLID(#150,#151,#9,3000.);
#153=IFCSTYLEDITEM(#152,(#106),$);
#154=IFCSHAPEREPRESENTATION(#24,'Body','SweptSolid',(#152));
#155=IFCPRODUCTDEFINITIONSHAPE($,$,(#147,#154));
#156=IFCWALLSTANDARDCASE('3S3VgMDFLDiPHeIJPk5HSc',#18,'Basic Wall:Basic wall ex:1200762',$,'Basic Wall:Basic wall ex',#144,#155,'1200397');
#157=IFCMATERIALLAYERSETUSAGE(#117,.AXIS2.,.NEGATIVE.,96.5);
#158=IFCPROPERTYSET('0ioGtQtA_RecjuFllRwD_v',#18,'Pset_QuantityTakeOff',$,(#120));
#159=IFCPROPERTYSINGLEVALUE('Reference',$,IFCLABEL('Basic wall ex'),$);
#160=IFCPROPERTYSET('0jRj2Jozvz45glBdUG82WJ',#18,'Pset_ReinforcementBarPitchOfWall',$,(#159));
#161=IFCPROPERTYSET('0Bq_dFUseVft_mLflNKI3f',#18,'Pset_WallCommon',$,(#120,#124,#125,#126));
#162=IFCRELDEFINESBYPROPERTIES('2vwCUkHXrMizQHFChRHIqX',#18,$,$,(#156),#158);
#163=IFCRELDEFINESBYPROPERTIES('34q3nPvYGqabGnxSgICzCt',#18,$,$,(#156),#160);
#164=IFCRELDEFINESBYPROPERTIES('2U6GzbazQ14R6QKMzq00c0',#18,$,$,(#156),#161);
#165=IFCCARTESIANPOINT((-4041.5000000000009,6945.,0.));
#166=IFCAXIS2PLACEMENT3D(#165,$,$);
#167=IFCLOCALPLACEMENT(#42,#166);
#168=IFCCARTESIANPOINT((7890.,0.));
#169=IFCPOLYLINE((#4,#168));
#170=IFCSHAPEREPRESENTATION(#23,'Axis','Curve2D',(#169));
#171=IFCCARTESIANPOINT((3945.0000000000009,0.));
#172=IFCAXIS2PLACEMENT2D(#171,#12);
#173=IFCRECTANGLEPROFILEDEF(.AREA.,$,#172,7890.0000000000018,192.99999999999943);
#174=IFCAXIS2PLACEMENT3D(#3,$,$);
#175=IFCEXTRUDEDAREASOLID(#173,#174,#9,3000.);
#176=IFCSTYLEDITEM(#175,(#106),$);
#177=IFCSHAPEREPRESENTATION(#24,'Body','SweptSolid',(#175));
#178=IFCPRODUCTDEFINITIONSHAPE($,$,(#170,#177));
#179=IFCWALLSTANDARDCASE('20rBv4HojAY8M3avWLHAgu',#18,'Basic Wall:Basic wall ex:1201621',$,'Basic Wall:Basic wall ex',#167,#178,'1200398');
#180=IFCMATERIALLAYERSETUSAGE(#117,.AXIS2.,.NEGATIVE.,96.5);
#181=IFCPROPERTYSET('1Rn4F1z_CJsvtlYMaa5PSt',#18,'Pset_QuantityTakeOff',$,(#120));
#182=IFCPROPERTYSINGLEVALUE('Reference',$,IFCLABEL('Basic wall ex'),$);
#183=IFCPROPERTYSET('1KhEXgrdIDydSFPXrBiS0m',#18,'Pset_ReinforcementBarPitchOfWall',$,(#182));
#184=IFCPROPERTYSET('2lq14KXaVJ7Px2qspuvdsC',#18,'Pset_WallCommon',$,(#120,#124,#125,#126));
#185=IFCRELDEFINESBYPROPERTIES('3AHHQ6onuy2URzh1UjlE9O',#18,$,$,(#179),#181);
#186=IFCRELDEFINESBYPROPERTIES('2qcsevpeu6eufDSVEmUsPu',#18,$,$,(#179),#183);
#187=IFCRELDEFINESBYPROPERTIES('1r5MEJGitOsMX5olrzJIAC',#18,$,$,(#179),#184);
#188=IFCCARTESIANPOINT((-3945.,-848.5,0.));
#189=IFCAXIS2PLACEMENT3D(#188,#9,#7);
#190=IFCLOCALPLACEMENT(#42,#189);
#191=IFCCARTESIANPOINT((7697.,0.));
#192=IFCPOLYLINE((#4,#191));
#193=IFCSHAPEREPRESENTATION(#23,'Axis','Curve2D',(#192));
#194=IFCCARTESIANPOINT((3848.4999999999995,0.));
#195=IFCAXIS2PLACEMENT2D(#194,#12);
#196=IFCRECTANGLEPROFILEDEF(.AREA.,$,#195,7696.9999999999991,193.00000000000051);
#197=IFCAXIS2PLACEMENT3D(#3,$,$);
#198=IFCEXTRUDEDAREASOLID(#196,#197,#9,3000.);
#199=IFCSTYLEDITEM(#198,(#106),$);
#200=IFCSHAPEREPRESENTATION(#24,'Body','SweptSolid',(#198));
#201=IFCPRODUCTDEFINITIONSHAPE($,$,(#193,#200));
#202=IFCWALLSTANDARDCASE('20rBv4HojAY8M3avWLHAad',#18,'Basic Wall:Basic wall ex:1201738',$,'Basic Wall:Basic wall ex',#190,#201,'1200399');
#203=IFCMATERIALLAYERSETUSAGE(#117,.AXIS2.,.NEGATIVE.,96.5);
#204=IFCPROPERTYSET('3dm4ZGtXW6nhEEy3Z17$3j',#18,'Pset_QuantityTakeOff',$,(#120));
#205=IFCPROPERTYSINGLEVALUE('Reference',$,IFCLABEL('Basic wall ex'),$);
#206=IFCPROPERTYSET('0nXIGQ36p0g2r$NMVut_pU',#18,'Pset_ReinforcementBarPitchOfWall',$,(#205));
#207=IFCPROPERTYSET('3uq$oOtgtgfp8hf2pK7VyI',#18,'Pset_WallCommon',$,(#120,#124,#125,#126));
#208=IFCRELDEFINESBYPROPERTIES('11H1ukGdpLAtE8x3dxXvPp',#18,$,$,(#202),#204);
#209=IFCRELDEFINESBYPROPERTIES('02eqpzulWo604OwMCu_6B5',#18,$,$,(#202),#206);
#210=IFCRELDEFINESBYPROPERTIES('0TzvGcCdEyBoGGqY4K64fc',#18,$,$,(#202),#207);
#211=IFCCARTESIANPOINT((6434.3428411517425,-1208.5000000000257));
#212=IFCCARTESIANPOINT((-5805.2589419698988,-1208.4999999999861));
#213=IFCPOLYLINE((#211,#212));
#214=IFCGRIDAXIS('8',#213,.T.);
#215=IFCGEOMETRICCURVESET((#213));
#216=IFCCOLOURRGB($,0.,0.,0.);
#217=IFCCURVESTYLE($,$,$,#216);
#218=IFCPRESENTATIONSTYLEASSIGNMENT((#217));
#219=IFCSTYLEDITEM(#215,(#218),$);
#220=IFCCARTESIANPOINT((6434.3428411517689,7208.4999999999718));
#221=IFCCARTESIANPOINT((-5805.2589419698706,7208.5000000000082));
#222=IFCPOLYLINE((#220,#221));
#223=IFCGRIDAXIS('10',#222,.T.);
#224=IFCGEOMETRICCURVESET((#222));
#225=IFCCOLOURRGB($,0.,0.,0.);
#226=IFCCURVESTYLE($,$,$,#225);
#227=IFCPRESENTATIONSTYLEASSIGNMENT((#226));
#228=IFCSTYLEDITEM(#224,(#227),$);
#229=IFCCARTESIANPOINT((152400.,2874.));
#230=IFCCARTESIANPOINT((-152798.57246912955,2874.));
#231=IFCPOLYLINE((#229,#230));
#232=IFCGRIDAXIS('15',#231,.T.);
#233=IFCGEOMETRICCURVESET((#231));
#234=IFCCOLOURRGB($,0.,0.,0.);
#235=IFCCURVESTYLE($,$,$,#234);
#236=IFCPRESENTATIONSTYLEASSIGNMENT((#235));
#237=IFCSTYLEDITEM(#233,(#236),$);
#238=IFCCARTESIANPOINT((152400.,3126.));
#239=IFCCARTESIANPOINT((-152798.57246912955,3126.));
#240=IFCPOLYLINE((#238,#239));
#241=IFCGRIDAXIS('16',#240,.T.);
#242=IFCGEOMETRICCURVESET((#240));
#243=IFCCOLOURRGB($,0.,0.,0.);
#244=IFCCURVESTYLE($,$,$,#243);
#245=IFCPRESENTATIONSTYLEASSIGNMENT((#244));
#246=IFCSTYLEDITEM(#242,(#245),$);
#247=IFCCARTESIANPOINT((4336.7890850012127,2586.));
#248=IFCCARTESIANPOINT((62.,2586.));
#249=IFCPOLYLINE((#247,#248));
#250=IFCGRIDAXIS('17',#249,.T.);
#251=IFCGEOMETRICCURVESET((#249));
#252=IFCCOLOURRGB($,0.,0.,0.);
#253=IFCCURVESTYLE($,$,$,#252);
#254=IFCPRESENTATIONSTYLEASSIGNMENT((#253));
#255=IFCSTYLEDITEM(#251,(#254),$);
#256=IFCCARTESIANPOINT((4336.7890850012154,3414.));
#257=IFCCARTESIANPOINT((62.,3414.));
#258=IFCPOLYLINE((#256,#257));
#259=IFCGRIDAXIS('18',#258,.T.);
#260=IFCGEOMETRICCURVESET((#258));
#261=IFCCOLOURRGB($,0.,0.,0.);
#262=IFCCURVESTYLE($,$,$,#261);
#263=IFCPRESENTATIONSTYLEASSIGNMENT((#262));
#264=IFCSTYLEDITEM(#260,(#263),$);
#265=IFCCARTESIANPOINT((6434.3428411517416,-848.5000000000191));
#266=IFCCARTESIANPOINT((-5805.2589419698979,-848.49999999997954));
#267=IFCPOLYLINE((#265,#266));
#268=IFCGRIDAXIS('25',#267,.T.);
#269=IFCGEOMETRICCURVESET((#267));
#270=IFCCOLOURRGB($,0.,0.,0.);
#271=IFCCURVESTYLE($,$,$,#270);
#272=IFCPRESENTATIONSTYLEASSIGNMENT((#271));
#273=IFCSTYLEDITEM(#269,(#272),$);
#274=IFCCARTESIANPOINT((6434.3428411517662,6848.4999999999782));
#275=IFCCARTESIANPOINT((-5805.2589419698725,6848.50000000002));
#276=IFCPOLYLINE((#274,#275));
#277=IFCGRIDAXIS('28',#276,.T.);
#278=IFCGEOMETRICCURVESET((#276));
#279=IFCCOLOURRGB($,0.,0.,0.);
#280=IFCCURVESTYLE($,$,$,#279);
#281=IFCPRESENTATIONSTYLEASSIGNMENT((#280));
#282=IFCSTYLEDITEM(#278,(#281),$);
#283=IFCCARTESIANPOINT((4208.5000000000136,9435.0061832160518));
#284=IFCCARTESIANPOINT((4208.4999999999936,-2625.0728218227782));
#285=IFCPOLYLINE((#283,#284));
#286=IFCGRIDAXIS('9',#285,.T.);
#287=IFCGEOMETRICCURVESET((#285));
#288=IFCCOLOURRGB($,0.,0.,0.);
#289=IFCCURVESTYLE($,$,$,#288);
#290=IFCPRESENTATIONSTYLEASSIGNMENT((#289));
#291=IFCSTYLEDITEM(#287,(#290),$);
#292=IFCCARTESIANPOINT((-4208.4999999999864,9435.0061832160645));
#293=IFCCARTESIANPOINT((-4208.5000000000064,-2625.072821822765));
#294=IFCPOLYLINE((#292,#293));
#295=IFCGRIDAXIS('7',#294,.T.);
#296=IFCGEOMETRICCURVESET((#294));
#297=IFCCOLOURRGB($,0.,0.,0.);
#298=IFCCURVESTYLE($,$,$,#297);
#299=IFCPRESENTATIONSTYLEASSIGNMENT((#298));
#300=IFCSTYLEDITEM(#296,(#299),$);
#301=IFCCARTESIANPOINT((62.,7650.8051367088028));
#302=IFCCARTESIANPOINT((62.,-1100.4316020733406));
#303=IFCPOLYLINE((#301,#302));
#304=IFCGRIDAXIS('23',#303,.T.);
#305=IFCGEOMETRICCURVESET((#303));
#306=IFCCOLOURRGB($,0.,0.,0.);
#307=IFCCURVESTYLE($,$,$,#306);
#308=IFCPRESENTATIONSTYLEASSIGNMENT((#307));
#309=IFCSTYLEDITEM(#305,(#308),$);
#310=IFCCARTESIANPOINT((-62.,7650.8051367088028));
#311=IFCCARTESIANPOINT((-62.,-1100.4316020733406));
#312=IFCPOLYLINE((#310,#311));
#313=IFCGRIDAXIS('24',#312,.T.);
#314=IFCGEOMETRICCURVESET((#312));
#315=IFCCOLOURRGB($,0.,0.,0.);
#316=IFCCURVESTYLE($,$,$,#315);
#317=IFCPRESENTATIONSTYLEASSIGNMENT((#316));
#318=IFCSTYLEDITEM(#314,(#317),$);
#319=IFCCARTESIANPOINT((-3848.4999999999936,9435.0061832160645));
#320=IFCCARTESIANPOINT((-3848.5000000000132,-2625.072821822765));
#321=IFCPOLYLINE((#319,#320));
#322=IFCGRIDAXIS('26',#321,.T.);
#323=IFCGEOMETRICCURVESET((#321));
#324=IFCCOLOURRGB($,0.,0.,0.);
#325=IFCCURVESTYLE($,$,$,#324);
#326=IFCPRESENTATIONSTYLEASSIGNMENT((#325));
#327=IFCSTYLEDITEM(#323,(#326),$);
#328=IFCCARTESIANPOINT((3848.500000000005,9435.0061832160518));
#329=IFCCARTESIANPOINT((3848.4999999999854,-2625.0728218227782));
#330=IFCPOLYLINE((#328,#329));
#331=IFCGRIDAXIS('27',#330,.T.);
#332=IFCGEOMETRICCURVESET((#330));
#333=IFCCOLOURRGB($,0.,0.,0.);
#334=IFCCURVESTYLE($,$,$,#333);
#335=IFCPRESENTATIONSTYLEASSIGNMENT((#334));
#336=IFCSTYLEDITEM(#332,(#335),$);
#337=IFCCARTESIANPOINT((1322.,-152400.));
#338=IFCCARTESIANPOINT((1322.,152400.));
#339=IFCPOLYLINE((#337,#338));
#340=IFCGRIDAXIS('13',#339,.T.);
#341=IFCGEOMETRICCURVESET((#339));
#342=IFCCOLOURRGB($,0.,0.,0.);
#343=IFCCURVESTYLE($,$,$,#342);
#344=IFCPRESENTATIONSTYLEASSIGNMENT((#343));
#345=IFCSTYLEDITEM(#341,(#344),$);
#346=IFCCARTESIANPOINT((1531.5000000001664,-152400.));
#347=IFCCARTESIANPOINT((1531.4999999997635,152400.));
#348=IFCPOLYLINE((#346,#347));
#349=IFCGRIDAXIS('14',#348,.T.);
#350=IFCGEOMETRICCURVESET((#348));
#351=IFCCOLOURRGB($,0.,0.,0.);
#352=IFCCURVESTYLE($,$,$,#351);
#353=IFCPRESENTATIONSTYLEASSIGNMENT((#352));
#354=IFCSTYLEDITEM(#350,(#353),$);
#355=IFCSHAPEREPRESENTATION(#26,'FootPrint','GeometricCurveSet',(#215,#224,#233,#242,#251,#260,#269,#278,#287,#296,#305,#314,#323,#332,#341,#350));
#356=IFCPRODUCTDEFINITIONSHAPE($,$,(#355));
#357=IFCLOCALPLACEMENT(#30,#34);
#358=IFCGRID('0THjc21llcAwzUhwCycYMA',#18,'Default Grid',$,$,#357,#356,(#214,#223,#232,#241,#250,#259,#268,#277),(#286,#295,#304,#313,#322,#331),(#340,#349));
#359=IFCCARTESIANPOINT((6434.3428411517425,-1208.5000000000257));
#360=IFCCARTESIANPOINT((-5805.2589419698988,-1208.4999999999861));
#361=IFCPOLYLINE((#359,#360));
#362=IFCGRIDAXIS('8',#361,.T.);
#363=IFCGEOMETRICCURVESET((#361));
#364=IFCCOLOURRGB($,0.,0.,0.);
#365=IFCCURVESTYLE($,$,$,#364);
#366=IFCPRESENTATIONSTYLEASSIGNMENT((#365));
#367=IFCSTYLEDITEM(#363,(#366),$);
#368=IFCCARTESIANPOINT((6434.3428411517689,7208.4999999999718));
#369=IFCCARTESIANPOINT((-5805.2589419698706,7208.5000000000082));
#370=IFCPOLYLINE((#368,#369));
#371=IFCGRIDAXIS('10',#370,.T.);
#372=IFCGEOMETRICCURVESET((#370));
#373=IFCCOLOURRGB($,0.,0.,0.);
#374=IFCCURVESTYLE($,$,$,#373);
#375=IFCPRESENTATIONSTYLEASSIGNMENT((#374));
#376=IFCSTYLEDITEM(#372,(#375),$);
#377=IFCCARTESIANPOINT((152400.,2874.));
#378=IFCCARTESIANPOINT((-152798.57246912955,2874.));
#379=IFCPOLYLINE((#377,#378));
#380=IFCGRIDAXIS('15',#379,.T.);
#381=IFCGEOMETRICCURVESET((#379));
#382=IFCCOLOURRGB($,0.,0.,0.);
#383=IFCCURVESTYLE($,$,$,#382);
#384=IFCPRESENTATIONSTYLEASSIGNMENT((#383));
#385=IFCSTYLEDITEM(#381,(#384),$);
#386=IFCCARTESIANPOINT((152400.,3126.));
#387=IFCCARTESIANPOINT((-152798.57246912955,3126.));
#388=IFCPOLYLINE((#386,#387));
#389=IFCGRIDAXIS('16',#388,.T.);
#390=IFCGEOMETRICCURVESET((#388));
#391=IFCCOLOURRGB($,0.,0.,0.);
#392=IFCCURVESTYLE($,$,$,#391);
#393=IFCPRESENTATIONSTYLEASSIGNMENT((#392));
#394=IFCSTYLEDITEM(#390,(#393),$);
#395=IFCCARTESIANPOINT((4336.7890850012127,2586.));
#396=IFCCARTESIANPOINT((62.,2586.));
#397=IFCPOLYLINE((#395,#396));
#398=IFCGRIDAXIS('17',#397,.T.);
#399=IFCGEOMETRICCURVESET((#397));
#400=IFCCOLOURRGB($,0.,0.,0.);
#401=IFCCURVESTYLE($,$,$,#400);
#402=IFCPRESENTATIONSTYLEASSIGNMENT((#401));
#403=IFCSTYLEDITEM(#399,(#402),$);
#404=IFCCARTESIANPOINT((4336.7890850012154,3414.));
#405=IFCCARTESIANPOINT((62.,3414.));
#406=IFCPOLYLINE((#404,#405));
#407=IFCGRIDAXIS('18',#406,.T.);
#408=IFCGEOMETRICCURVESET((#406));
#409=IFCCOLOURRGB($,0.,0.,0.);
#410=IFCCURVESTYLE($,$,$,#409);
#411=IFCPRESENTATIONSTYLEASSIGNMENT((#410));
#412=IFCSTYLEDITEM(#408,(#411),$);
#413=IFCCARTESIANPOINT((6434.3428411517416,-848.5000000000191));
#414=IFCCARTESIANPOINT((-5805.2589419698979,-848.49999999997954));
#415=IFCPOLYLINE((#413,#414));
#416=IFCGRIDAXIS('25',#415,.T.);
#417=IFCGEOMETRICCURVESET((#415));
#418=IFCCOLOURRGB($,0.,0.,0.);
#419=IFCCURVESTYLE($,$,$,#418);
#420=IFCPRESENTATIONSTYLEASSIGNMENT((#419));
#421=IFCSTYLEDITEM(#417,(#420),$);
#422=IFCCARTESIANPOINT((6434.3428411517662,6848.4999999999782));
#423=IFCCARTESIANPOINT((-5805.2589419698725,6848.50000000002));
#424=IFCPOLYLINE((#422,#423));
#425=IFCGRIDAXIS('28',#424,.T.);
#426=IFCGEOMETRICCURVESET((#424));
#427=IFCCOLOURRGB($,0.,0.,0.);
#428=IFCCURVESTYLE($,$,$,#427);
#429=IFCPRESENTATIONSTYLEASSIGNMENT((#428));
#430=IFCSTYLEDITEM(#426,(#429),$);
#431=IFCCARTESIANPOINT((4208.5000000000136,9435.0061832160518));
#432=IFCCARTESIANPOINT((4208.4999999999936,-2625.0728218227782));
#433=IFCPOLYLINE((#431,#432));
#434=IFCGRIDAXIS('9',#433,.T.);
#435=IFCGEOMETRICCURVESET((#433));
#436=IFCCOLOURRGB($,0.,0.,0.);
#437=IFCCURVESTYLE($,$,$,#436);
#438=IFCPRESENTATIONSTYLEASSIGNMENT((#437));
#439=IFCSTYLEDITEM(#435,(#438),$);
#440=IFCCARTESIANPOINT((-4208.4999999999864,9435.0061832160645));
#441=IFCCARTESIANPOINT((-4208.5000000000064,-2625.072821822765));
#442=IFCPOLYLINE((#440,#441));
#443=IFCGRIDAXIS('7',#442,.T.);
#444=IFCGEOMETRICCURVESET((#442));
#445=IFCCOLOURRGB($,0.,0.,0.);
#446=IFCCURVESTYLE($,$,$,#445);
#447=IFCPRESENTATIONSTYLEASSIGNMENT((#446));
#448=IFCSTYLEDITEM(#444,(#447),$);
#449=IFCCARTESIANPOINT((62.,7650.8051367088028));
#450=IFCCARTESIANPOINT((62.,-1100.4316020733406));
#451=IFCPOLYLINE((#449,#450));
#452=IFCGRIDAXIS('23',#451,.T.);
#453=IFCGEOMETRICCURVESET((#451));
#454=IFCCOLOURRGB($,0.,0.,0.);
#455=IFCCURVESTYLE($,$,$,#454);
#456=IFCPRESENTATIONSTYLEASSIGNMENT((#455));
#457=IFCSTYLEDITEM(#453,(#456),$);
#458=IFCCARTESIANPOINT((-62.,7650.8051367088028));
#459=IFCCARTESIANPOINT((-62.,-1100.4316020733406));
#460=IFCPOLYLINE((#458,#459));
#461=IFCGRIDAXIS('24',#460,.T.);
#462=IFCGEOMETRICCURVESET((#460));
#463=IFCCOLOURRGB($,0.,0.,0.);
#464=IFCCURVESTYLE($,$,$,#463);
#465=IFCPRESENTATIONSTYLEASSIGNMENT((#464));
#466=IFCSTYLEDITEM(#462,(#465),$);
#467=IFCCARTESIANPOINT((-3848.4999999999936,9435.0061832160645));
#468=IFCCARTESIANPOINT((-3848.5000000000132,-2625.072821822765));
#469=IFCPOLYLINE((#467,#468));
#470=IFCGRIDAXIS('26',#469,.T.);
#471=IFCGEOMETRICCURVESET((#469));
#472=IFCCOLOURRGB($,0.,0.,0.);
#473=IFCCURVESTYLE($,$,$,#472);
#474=IFCPRESENTATIONSTYLEASSIGNMENT((#473));
#475=IFCSTYLEDITEM(#471,(#474),$);
#476=IFCCARTESIANPOINT((3848.500000000005,9435.0061832160518));
#477=IFCCARTESIANPOINT((3848.4999999999854,-2625.0728218227782));
#478=IFCPOLYLINE((#476,#477));
#479=IFCGRIDAXIS('27',#478,.T.);
#480=IFCGEOMETRICCURVESET((#478));
#481=IFCCOLOURRGB($,0.,0.,0.);
#482=IFCCURVESTYLE($,$,$,#481);
#483=IFCPRESENTATIONSTYLEASSIGNMENT((#482));
#484=IFCSTYLEDITEM(#480,(#483),$);
#485=IFCCARTESIANPOINT((1322.,-152400.));
#486=IFCCARTESIANPOINT((1322.,152400.));
#487=IFCPOLYLINE((#485,#486));
#488=IFCGRIDAXIS('13',#487,.T.);
#489=IFCGEOMETRICCURVESET((#487));
#490=IFCCOLOURRGB($,0.,0.,0.);
#491=IFCCURVESTYLE($,$,$,#490);
#492=IFCPRESENTATIONSTYLEASSIGNMENT((#491));
#493=IFCSTYLEDITEM(#489,(#492),$);
#494=IFCCARTESIANPOINT((1531.5000000001664,-152400.));
#495=IFCCARTESIANPOINT((1531.4999999997635,152400.));
#496=IFCPOLYLINE((#494,#495));
#497=IFCGRIDAXIS('14',#496,.T.);
#498=IFCGEOMETRICCURVESET((#496));
#499=IFCCOLOURRGB($,0.,0.,0.);
#500=IFCCURVESTYLE($,$,$,#499);
#501=IFCPRESENTATIONSTYLEASSIGNMENT((#500));
#502=IFCSTYLEDITEM(#498,(#501),$);
#503=IFCSHAPEREPRESENTATION(#26,'FootPrint','GeometricCurveSet',(#363,#372,#381,#390,#399,#408,#417,#426,#435,#444,#453,#462,#471,#480,#489,#498));
#504=IFCPRODUCTDEFINITIONSHAPE($,$,(#503));
#505=IFCLOCALPLACEMENT(#30,#38);
#506=IFCGRID('3RcGjlHjjZF6r2CTnd3DUU',#18,'Default Grid',$,$,#505,#504,(#362,#371,#380,#389,#398,#407,#416,#425),(#434,#443,#452,#461,#470,#479),(#488,#497));
#507=IFCCARTESIANPOINT((6434.3428411517425,-1208.5000000000257));
#508=IFCCARTESIANPOINT((-5805.2589419698988,-1208.4999999999861));
#509=IFCPOLYLINE((#507,#508));
#510=IFCGRIDAXIS('8',#509,.T.);
#511=IFCGEOMETRICCURVESET((#509));
#512=IFCCOLOURRGB($,0.,0.,0.);
#513=IFCCURVESTYLE($,$,$,#512);
#514=IFCPRESENTATIONSTYLEASSIGNMENT((#513));
#515=IFCSTYLEDITEM(#511,(#514),$);
#516=IFCCARTESIANPOINT((6434.3428411517689,7208.4999999999718));
#517=IFCCARTESIANPOINT((-5805.2589419698706,7208.5000000000082));
#518=IFCPOLYLINE((#516,#517));
#519=IFCGRIDAXIS('10',#518,.T.);
#520=IFCGEOMETRICCURVESET((#518));
#521=IFCCOLOURRGB($,0.,0.,0.);
#522=IFCCURVESTYLE($,$,$,#521);
#523=IFCPRESENTATIONSTYLEASSIGNMENT((#522));
#524=IFCSTYLEDITEM(#520,(#523),$);
#525=IFCCARTESIANPOINT((152400.,2874.));
#526=IFCCARTESIANPOINT((-152798.57246912955,2874.));
#527=IFCPOLYLINE((#525,#526));
#528=IFCGRIDAXIS('15',#527,.T.);
#529=IFCGEOMETRICCURVESET((#527));
#530=IFCCOLOURRGB($,0.,0.,0.);
#531=IFCCURVESTYLE($,$,$,#530);
#532=IFCPRESENTATIONSTYLEASSIGNMENT((#531));
#533=IFCSTYLEDITEM(#529,(#532),$);
#534=IFCCARTESIANPOINT((152400.,3126.));
#535=IFCCARTESIANPOINT((-152798.57246912955,3126.));
#536=IFCPOLYLINE((#534,#535));
#537=IFCGRIDAXIS('16',#536,.T.);
#538=IFCGEOMETRICCURVESET((#536));
#539=IFCCOLOURRGB($,0.,0.,0.);
#540=IFCCURVESTYLE($,$,$,#539);
#541=IFCPRESENTATIONSTYLEASSIGNMENT((#540));
#542=IFCSTYLEDITEM(#538,(#541),$);
#543=IFCCARTESIANPOINT((4336.7890850012127,2586.));
#544=IFCCARTESIANPOINT((62.,2586.));
#545=IFCPOLYLINE((#543,#544));
#546=IFCGRIDAXIS('17',#545,.T.);
#547=IFCGEOMETRICCURVESET((#545));
#548=IFCCOLOURRGB($,0.,0.,0.);
#549=IFCCURVESTYLE($,$,$,#548);
#550=IFCPRESENTATIONSTYLEASSIGNMENT((#549));
#551=IFCSTYLEDITEM(#547,(#550),$);
#552=IFCCARTESIANPOINT((4336.7890850012154,3414.));
#553=IFCCARTESIANPOINT((62.,3414.));
#554=IFCPOLYLINE((#552,#553));
#555=IFCGRIDAXIS('18',#554,.T.);
#556=IFCGEOMETRICCURVESET((#554));
#557=IFCCOLOURRGB($,0.,0.,0.);
#558=IFCCURVESTYLE($,$,$,#557);
#559=IFCPRESENTATIONSTYLEASSIGNMENT((#558));
#560=IFCSTYLEDITEM(#556,(#559),$);
#561=IFCCARTESIANPOINT((6434.3428411517416,-848.5000000000191));
#562=IFCCARTESIANPOINT((-5805.2589419698979,-848.49999999997954));
#563=IFCPOLYLINE((#561,#562));
#564=IFCGRIDAXIS('25',#563,.T.);
#565=IFCGEOMETRICCURVESET((#563));
#566=IFCCOLOURRGB($,0.,0.,0.);
#567=IFCCURVESTYLE($,$,$,#566);
#568=IFCPRESENTATIONSTYLEASSIGNMENT((#567));
#569=IFCSTYLEDITEM(#565,(#568),$);
#570=IFCCARTESIANPOINT((6434.3428411517662,6848.4999999999782));
#571=IFCCARTESIANPOINT((-5805.2589419698725,6848.50000000002));
#572=IFCPOLYLINE((#570,#571));
#573=IFCGRIDAXIS('28',#572,.T.);
#574=IFCGEOMETRICCURVESET((#572));
#575=IFCCOLOURRGB($,0.,0.,0.);
#576=IFCCURVESTYLE($,$,$,#575);
#577=IFCPRESENTATIONSTYLEASSIGNMENT((#576));
#578=IFCSTYLEDITEM(#574,(#577),$);
#579=IFCCARTESIANPOINT((4208.5000000000136,9435.0061832160518));
#580=IFCCARTESIANPOINT((4208.4999999999936,-2625.0728218227782));
#581=IFCPOLYLINE((#579,#580));
#582=IFCGRIDAXIS('9',#581,.T.);
#583=IFCGEOMETRICCURVESET((#581));
#584=IFCCOLOURRGB($,0.,0.,0.);
#585=IFCCURVESTYLE($,$,$,#584);
#586=IFCPRESENTATIONSTYLEASSIGNMENT((#585));
#587=IFCSTYLEDITEM(#583,(#586),$);
#588=IFCCARTESIANPOINT((-4208.4999999999864,9435.0061832160645));
#589=IFCCARTESIANPOINT((-4208.5000000000064,-2625.072821822765));
#590=IFCPOLYLINE((#588,#589));
#591=IFCGRIDAXIS('7',#590,.T.);
#592=IFCGEOMETRICCURVESET((#590));
#593=IFCCOLOURRGB($,0.,0.,0.);
#594=IFCCURVESTYLE($,$,$,#593);
#595=IFCPRESENTATIONSTYLEASSIGNMENT((#594));
#596=IFCSTYLEDITEM(#592,(#595),$);
#597=IFCCARTESIANPOINT((62.,7650.8051367088028));
#598=IFCCARTESIANPOINT((62.,-1100.4316020733406));
#599=IFCPOLYLINE((#597,#598));
#600=IFCGRIDAXIS('23',#599,.T.);
#601=IFCGEOMETRICCURVESET((#599));
#602=IFCCOLOURRGB($,0.,0.,0.);
#603=IFCCURVESTYLE($,$,$,#602);
#604=IFCPRESENTATIONSTYLEASSIGNMENT((#603));
#605=IFCSTYLEDITEM(#601,(#604),$);
#606=IFCCARTESIANPOINT((-62.,7650.8051367088028));
#607=IFCCARTESIANPOINT((-62.,-1100.4316020733406));
#608=IFCPOLYLINE((#606,#607));
#609=IFCGRIDAXIS('24',#608,.T.);
#610=IFCGEOMETRICCURVESET((#608));
#611=IFCCOLOURRGB($,0.,0.,0.);
#612=IFCCURVESTYLE($,$,$,#611);
#613=IFCPRESENTATIONSTYLEASSIGNMENT((#612));
#614=IFCSTYLEDITEM(#610,(#613),$);
#615=IFCCARTESIANPOINT((-3848.4999999999936,9435.0061832160645));
#616=IFCCARTESIANPOINT((-3848.5000000000132,-2625.072821822765));
#617=IFCPOLYLINE((#615,#616));
#618=IFCGRIDAXIS('26',#617,.T.);
#619=IFCGEOMETRICCURVESET((#617));
#620=IFCCOLOURRGB($,0.,0.,0.);
#621=IFCCURVESTYLE($,$,$,#620);
#622=IFCPRESENTATIONSTYLEASSIGNMENT((#621));
#623=IFCSTYLEDITEM(#619,(#622),$);
#624=IFCCARTESIANPOINT((3848.500000000005,9435.0061832160518));
#625=IFCCARTESIANPOINT((3848.4999999999854,-2625.0728218227782));
#626=IFCPOLYLINE((#624,#625));
#627=IFCGRIDAXIS('27',#626,.T.);
#628=IFCGEOMETRICCURVESET((#626));
#629=IFCCOLOURRGB($,0.,0.,0.);
#630=IFCCURVESTYLE($,$,$,#629);
#631=IFCPRESENTATIONSTYLEASSIGNMENT((#630));
#632=IFCSTYLEDITEM(#628,(#631),$);
#633=IFCCARTESIANPOINT((1322.,-152400.));
#634=IFCCARTESIANPOINT((1322.,152400.));
#635=IFCPOLYLINE((#633,#634));
#636=IFCGRIDAXIS('13',#635,.T.);
#637=IFCGEOMETRICCURVESET((#635));
#638=IFCCOLOURRGB($,0.,0.,0.);
#639=IFCCURVESTYLE($,$,$,#638);
#640=IFCPRESENTATIONSTYLEASSIGNMENT((#639));
#641=IFCSTYLEDITEM(#637,(#640),$);
#642=IFCCARTESIANPOINT((1531.5000000001664,-152400.));
#643=IFCCARTESIANPOINT((1531.4999999997635,152400.));
#644=IFCPOLYLINE((#642,#643));
#645=IFCGRIDAXIS('14',#644,.T.);
#646=IFCGEOMETRICCURVESET((#644));
#647=IFCCOLOURRGB($,0.,0.,0.);
#648=IFCCURVESTYLE($,$,$,#647);
#649=IFCPRESENTATIONSTYLEASSIGNMENT((#648));
#650=IFCSTYLEDITEM(#646,(#649),$);
#651=IFCSHAPEREPRESENTATION(#26,'FootPrint','GeometricCurveSet',(#511,#520,#529,#538,#547,#556,#565,#574,#583,#592,#601,#610,#619,#628,#637,#646));
#652=IFCPRODUCTDEFINITIONSHAPE($,$,(#651));
#653=IFCLOCALPLACEMENT(#30,#41);
#654=IFCGRID('2t9Af4Zn_h4XYyiD_caTZj',#18,'Default Grid',$,$,#653,#652,(#510,#519,#528,#537,#546,#555,#564,#573),(#582,#591,#600,#609,#618,#627),(#636,#645));
#655=IFCCARTESIANPOINT((6434.3428411517425,-1208.5000000000257));
#656=IFCCARTESIANPOINT((-5805.2589419698988,-1208.4999999999861));
#657=IFCPOLYLINE((#655,#656));
#658=IFCGRIDAXIS('8',#657,.T.);
#659=IFCGEOMETRICCURVESET((#657));
#660=IFCCOLOURRGB($,0.,0.,0.);
#661=IFCCURVESTYLE($,$,$,#660);
#662=IFCPRESENTATIONSTYLEASSIGNMENT((#661));
#663=IFCSTYLEDITEM(#659,(#662),$);
#664=IFCCARTESIANPOINT((6434.3428411517689,7208.4999999999718));
#665=IFCCARTESIANPOINT((-5805.2589419698706,7208.5000000000082));
#666=IFCPOLYLINE((#664,#665));
#667=IFCGRIDAXIS('10',#666,.T.);
#668=IFCGEOMETRICCURVESET((#666));
#669=IFCCOLOURRGB($,0.,0.,0.);
#670=IFCCURVESTYLE($,$,$,#669);
#671=IFCPRESENTATIONSTYLEASSIGNMENT((#670));
#672=IFCSTYLEDITEM(#668,(#671),$);
#673=IFCCARTESIANPOINT((152400.,2874.));
#674=IFCCARTESIANPOINT((-152798.57246912955,2874.));
#675=IFCPOLYLINE((#673,#674));
#676=IFCGRIDAXIS('15',#675,.T.);
#677=IFCGEOMETRICCURVESET((#675));
#678=IFCCOLOURRGB($,0.,0.,0.);
#679=IFCCURVESTYLE($,$,$,#678);
#680=IFCPRESENTATIONSTYLEASSIGNMENT((#679));
#681=IFCSTYLEDITEM(#677,(#680),$);
#682=IFCCARTESIANPOINT((152400.,3126.));
#683=IFCCARTESIANPOINT((-152798.57246912955,3126.));
#684=IFCPOLYLINE((#682,#683));
#685=IFCGRIDAXIS('16',#684,.T.);
#686=IFCGEOMETRICCURVESET((#684));
#687=IFCCOLOURRGB($,0.,0.,0.);
#688=IFCCURVESTYLE($,$,$,#687);
#689=IFCPRESENTATIONSTYLEASSIGNMENT((#688));
#690=IFCSTYLEDITEM(#686,(#689),$);
#691=IFCCARTESIANPOINT((4336.7890850012127,2586.));
#692=IFCCARTESIANPOINT((62.,2586.));
#693=IFCPOLYLINE((#691,#692));
#694=IFCGRIDAXIS('17',#693,.T.);
#695=IFCGEOMETRICCURVESET((#693));
#696=IFCCOLOURRGB($,0.,0.,0.);
#697=IFCCURVESTYLE($,$,$,#696);
#698=IFCPRESENTATIONSTYLEASSIGNMENT((#697));
#699=IFCSTYLEDITEM(#695,(#698),$);
#700=IFCCARTESIANPOINT((4336.7890850012154,3414.));
#701=IFCCARTESIANPOINT((62.,3414.));
#702=IFCPOLYLINE((#700,#701));
#703=IFCGRIDAXIS('18',#702,.T.);
#704=IFCGEOMETRICCURVESET((#702));
#705=IFCCOLOURRGB($,0.,0.,0.);
#706=IFCCURVESTYLE($,$,$,#705);
#707=IFCPRESENTATIONSTYLEASSIGNMENT((#706));
#708=IFCSTYLEDITEM(#704,(#707),$);
#709=IFCCARTESIANPOINT((6434.3428411517416,-848.5000000000191));
#710=IFCCARTESIANPOINT((-5805.2589419698979,-848.49999999997954));
#711=IFCPOLYLINE((#709,#710));
#712=IFCGRIDAXIS('25',#711,.T.);
#713=IFCGEOMETRICCURVESET((#711));
#714=IFCCOLOURRGB($,0.,0.,0.);
#715=IFCCURVESTYLE($,$,$,#714);
#716=IFCPRESENTATIONSTYLEASSIGNMENT((#715));
#717=IFCSTYLEDITEM(#713,(#716),$);
#718=IFCCARTESIANPOINT((6434.3428411517662,6848.4999999999782));
#719=IFCCARTESIANPOINT((-5805.2589419698725,6848.50000000002));
#720=IFCPOLYLINE((#718,#719));
#721=IFCGRIDAXIS('28',#720,.T.);
#722=IFCGEOMETRICCURVESET((#720));
#723=IFCCOLOURRGB($,0.,0.,0.);
#724=IFCCURVESTYLE($,$,$,#723);
#725=IFCPRESENTATIONSTYLEASSIGNMENT((#724));
#726=IFCSTYLEDITEM(#722,(#725),$);
#727=IFCCARTESIANPOINT((4208.5000000000136,9435.0061832160518));
#728=IFCCARTESIANPOINT((4208.4999999999936,-2625.0728218227782));
#729=IFCPOLYLINE((#727,#728));
#730=IFCGRIDAXIS('9',#729,.T.);
#731=IFCGEOMETRICCURVESET((#729));
#732=IFCCOLOURRGB($,0.,0.,0.);
#733=IFCCURVESTYLE($,$,$,#732);
#734=IFCPRESENTATIONSTYLEASSIGNMENT((#733));
#735=IFCSTYLEDITEM(#731,(#734),$);
#736=IFCCARTESIANPOINT((-4208.4999999999864,9435.0061832160645));
#737=IFCCARTESIANPOINT((-4208.5000000000064,-2625.072821822765));
#738=IFCPOLYLINE((#736,#737));
#739=IFCGRIDAXIS('7',#738,.T.);
#740=IFCGEOMETRICCURVESET((#738));
#741=IFCCOLOURRGB($,0.,0.,0.);
#742=IFCCURVESTYLE($,$,$,#741);
#743=IFCPRESENTATIONSTYLEASSIGNMENT((#742));
#744=IFCSTYLEDITEM(#740,(#743),$);
#745=IFCCARTESIANPOINT((62.,7650.8051367088028));
#746=IFCCARTESIANPOINT((62.,-1100.4316020733406));
#747=IFCPOLYLINE((#745,#746));
#748=IFCGRIDAXIS('23',#747,.T.);
#749=IFCGEOMETRICCURVESET((#747));
#750=IFCCOLOURRGB($,0.,0.,0.);
#751=IFCCURVESTYLE($,$,$,#750);
#752=IFCPRESENTATIONSTYLEASSIGNMENT((#751));
#753=IFCSTYLEDITEM(#749,(#752),$);
#754=IFCCARTESIANPOINT((-62.,7650.8051367088028));
#755=IFCCARTESIANPOINT((-62.,-1100.4316020733406));
#756=IFCPOLYLINE((#754,#755));
#757=IFCGRIDAXIS('24',#756,.T.);
#758=IFCGEOMETRICCURVESET((#756));
#759=IFCCOLOURRGB($,0.,0.,0.);
#760=IFCCURVESTYLE($,$,$,#759);
#761=IFCPRESENTATIONSTYLEASSIGNMENT((#760));
#762=IFCSTYLEDITEM(#758,(#761),$);
#763=IFCCARTESIANPOINT((-3848.4999999999936,9435.0061832160645));
#764=IFCCARTESIANPOINT((-3848.5000000000132,-2625.072821822765));
#765=IFCPOLYLINE((#763,#764));
#766=IFCGRIDAXIS('26',#765,.T.);
#767=IFCGEOMETRICCURVESET((#765));
#768=IFCCOLOURRGB($,0.,0.,0.);
#769=IFCCURVESTYLE($,$,$,#768);
#770=IFCPRESENTATIONSTYLEASSIGNMENT((#769));
#771=IFCSTYLEDITEM(#767,(#770),$);
#772=IFCCARTESIANPOINT((3848.500000000005,9435.0061832160518));
#773=IFCCARTESIANPOINT((3848.4999999999854,-2625.0728218227782));
#774=IFCPOLYLINE((#772,#773));
#775=IFCGRIDAXIS('27',#774,.T.);
#776=IFCGEOMETRICCURVESET((#774));
#777=IFCCOLOURRGB($,0.,0.,0.);
#778=IFCCURVESTYLE($,$,$,#777);
#779=IFCPRESENTATIONSTYLEASSIGNMENT((#778));
#780=IFCSTYLEDITEM(#776,(#779),$);
#781=IFCCARTESIANPOINT((1322.,-152400.));
#782=IFCCARTESIANPOINT((1322.,152400.));
#783=IFCPOLYLINE((#781,#782));
#784=IFCGRIDAXIS('13',#783,.T.);
#785=IFCGEOMETRICCURVESET((#783));
#786=IFCCOLOURRGB($,0.,0.,0.);
#787=IFCCURVESTYLE($,$,$,#786);
#788=IFCPRESENTATIONSTYLEASSIGNMENT((#787));
#789=IFCSTYLEDITEM(#785,(#788),$);
#790=IFCCARTESIANPOINT((1531.5000000001664,-152400.));
#791=IFCCARTESIANPOINT((1531.4999999997635,152400.));
#792=IFCPOLYLINE((#790,#791));
#793=IFCGRIDAXIS('14',#792,.T.);
#794=IFCGEOMETRICCURVESET((#792));
#795=IFCCOLOURRGB($,0.,0.,0.);
#796=IFCCURVESTYLE($,$,$,#795);
#797=IFCPRESENTATIONSTYLEASSIGNMENT((#796));
#798=IFCSTYLEDITEM(#794,(#797),$);
#799=IFCSHAPEREPRESENTATION(#26,'FootPrint','GeometricCurveSet',(#659,#668,#677,#686,#695,#704,#713,#722,#731,#740,#749,#758,#767,#776,#785,#794));
#800=IFCPRODUCTDEFINITIONSHAPE($,$,(#799));
#801=IFCLOCALPLACEMENT(#30,#45);
#802=IFCGRID('2i9Pw8YCGjTnIx0qK5RVbZ',#18,'Default Grid',$,$,#801,#800,(#658,#667,#676,#685,#694,#703,#712,#721),(#730,#739,#748,#757,#766,#775),(#784,#793));
#803=IFCCARTESIANPOINT((6434.3428411517425,-1208.5000000000257));
#804=IFCCARTESIANPOINT((-5805.2589419698988,-1208.4999999999861));
#805=IFCPOLYLINE((#803,#804));
#806=IFCGRIDAXIS('8',#805,.T.);
#807=IFCGEOMETRICCURVESET((#805));
#808=IFCCOLOURRGB($,0.,0.,0.);
#809=IFCCURVESTYLE($,$,$,#808);
#810=IFCPRESENTATIONSTYLEASSIGNMENT((#809));
#811=IFCSTYLEDITEM(#807,(#810),$);
#812=IFCCARTESIANPOINT((6434.3428411517689,7208.4999999999718));
#813=IFCCARTESIANPOINT((-5805.2589419698706,7208.5000000000082));
#814=IFCPOLYLINE((#812,#813));
#815=IFCGRIDAXIS('10',#814,.T.);
#816=IFCGEOMETRICCURVESET((#814));
#817=IFCCOLOURRGB($,0.,0.,0.);
#818=IFCCURVESTYLE($,$,$,#817);
#819=IFCPRESENTATIONSTYLEASSIGNMENT((#818));
#820=IFCSTYLEDITEM(#816,(#819),$);
#821=IFCCARTESIANPOINT((152400.,2874.));
#822=IFCCARTESIANPOINT((-152798.57246912955,2874.));
#823=IFCPOLYLINE((#821,#822));
#824=IFCGRIDAXIS('15',#823,.T.);
#825=IFCGEOMETRICCURVESET((#823));
#826=IFCCOLOURRGB($,0.,0.,0.);
#827=IFCCURVESTYLE($,$,$,#826);
#828=IFCPRESENTATIONSTYLEASSIGNMENT((#827));
#829=IFCSTYLEDITEM(#825,(#828),$);
#830=IFCCARTESIANPOINT((152400.,3126.));
#831=IFCCARTESIANPOINT((-152798.57246912955,3126.));
#832=IFCPOLYLINE((#830,#831));
#833=IFCGRIDAXIS('16',#832,.T.);
#834=IFCGEOMETRICCURVESET((#832));
#835=IFCCOLOURRGB($,0.,0.,0.);
#836=IFCCURVESTYLE($,$,$,#835);
#837=IFCPRESENTATIONSTYLEASSIGNMENT((#836));
#838=IFCSTYLEDITEM(#834,(#837),$);
#839=IFCCARTESIANPOINT((4336.7890850012127,2586.));
#840=IFCCARTESIANPOINT((62.,2586.));
#841=IFCPOLYLINE((#839,#840));
#842=IFCGRIDAXIS('17',#841,.T.);
#843=IFCGEOMETRICCURVESET((#841));
#844=IFCCOLOURRGB($,0.,0.,0.);
#845=IFCCURVESTYLE($,$,$,#844);
#846=IFCPRESENTATIONSTYLEASSIGNMENT((#845));
#847=IFCSTYLEDITEM(#843,(#846),$);
#848=IFCCARTESIANPOINT((4336.7890850012154,3414.));
#849=IFCCARTESIANPOINT((62.,3414.));
#850=IFCPOLYLINE((#848,#849));
#851=IFCGRIDAXIS('18',#850,.T.);
#852=IFCGEOMETRICCURVESET((#850));
#853=IFCCOLOURRGB($,0.,0.,0.);
#854=IFCCURVESTYLE($,$,$,#853);
#855=IFCPRESENTATIONSTYLEASSIGNMENT((#854));
#856=IFCSTYLEDITEM(#852,(#855),$);
#857=IFCCARTESIANPOINT((6434.3428411517416,-848.5000000000191));
#858=IFCCARTESIANPOINT((-5805.2589419698979,-848.49999999997954));
#859=IFCPOLYLINE((#857,#858));
#860=IFCGRIDAXIS('25',#859,.T.);
#861=IFCGEOMETRICCURVESET((#859));
#862=IFCCOLOURRGB($,0.,0.,0.);
#863=IFCCURVESTYLE($,$,$,#862);
#864=IFCPRESENTATIONSTYLEASSIGNMENT((#863));
#865=IFCSTYLEDITEM(#861,(#864),$);
#866=IFCCARTESIANPOINT((6434.3428411517662,6848.4999999999782));
#867=IFCCARTESIANPOINT((-5805.2589419698725,6848.50000000002));
#868=IFCPOLYLINE((#866,#867));
#869=IFCGRIDAXIS('28',#868,.T.);
#870=IFCGEOMETRICCURVESET((#868));
#871=IFCCOLOURRGB($,0.,0.,0.);
#872=IFCCURVESTYLE($,$,$,#871);
#873=IFCPRESENTATIONSTYLEASSIGNMENT((#872));
#874=IFCSTYLEDITEM(#870,(#873),$);
#875=IFCCARTESIANPOINT((4208.5000000000136,9435.0061832160518));
#876=IFCCARTESIANPOINT((4208.4999999999936,-2625.0728218227782));
#877=IFCPOLYLINE((#875,#876));
#878=IFCGRIDAXIS('9',#877,.T.);
#879=IFCGEOMETRICCURVESET((#877));
#880=IFCCOLOURRGB($,0.,0.,0.);
#881=IFCCURVESTYLE($,$,$,#880);
#882=IFCPRESENTATIONSTYLEASSIGNMENT((#881));
#883=IFCSTYLEDITEM(#879,(#882),$);
#884=IFCCARTESIANPOINT((-4208.4999999999864,9435.0061832160645));
#885=IFCCARTESIANPOINT((-4208.5000000000064,-2625.072821822765));
#886=IFCPOLYLINE((#884,#885));
#887=IFCGRIDAXIS('7',#886,.T.);
#888=IFCGEOMETRICCURVESET((#886));
#889=IFCCOLOURRGB($,0.,0.,0.);
#890=IFCCURVESTYLE($,$,$,#889);
#891=IFCPRESENTATIONSTYLEASSIGNMENT((#890));
#892=IFCSTYLEDITEM(#888,(#891),$);
#893=IFCCARTESIANPOINT((62.,7650.8051367088028));
#894=IFCCARTESIANPOINT((62.,-1100.4316020733406));
#895=IFCPOLYLINE((#893,#894));
#896=IFCGRIDAXIS('23',#895,.T.);
#897=IFCGEOMETRICCURVESET((#895));
#898=IFCCOLOURRGB($,0.,0.,0.);
#899=IFCCURVESTYLE($,$,$,#898);
#900=IFCPRESENTATIONSTYLEASSIGNMENT((#899));
#901=IFCSTYLEDITEM(#897,(#900),$);
#902=IFCCARTESIANPOINT((-62.,7650.8051367088028));
#903=IFCCARTESIANPOINT((-62.,-1100.4316020733406));
#904=IFCPOLYLINE((#902,#903));
#905=IFCGRIDAXIS('24',#904,.T.);
#906=IFCGEOMETRICCURVESET((#904));
#907=IFCCOLOURRGB($,0.,0.,0.);
#908=IFCCURVESTYLE($,$,$,#907);
#909=IFCPRESENTATIONSTYLEASSIGNMENT((#908));
#910=IFCSTYLEDITEM(#906,(#909),$);
#911=IFCCARTESIANPOINT((-3848.4999999999936,9435.0061832160645));
#912=IFCCARTESIANPOINT((-3848.5000000000132,-2625.072821822765));
#913=IFCPOLYLINE((#911,#912));
#914=IFCGRIDAXIS('26',#913,.T.);
#915=IFCGEOMETRICCURVESET((#913));
#916=IFCCOLOURRGB($,0.,0.,0.);
#917=IFCCURVESTYLE($,$,$,#916);
#918=IFCPRESENTATIONSTYLEASSIGNMENT((#917));
#919=IFCSTYLEDITEM(#915,(#918),$);
#920=IFCCARTESIANPOINT((3848.500000000005,9435.0061832160518));
#921=IFCCARTESIANPOINT((3848.4999999999854,-2625.0728218227782));
#922=IFCPOLYLINE((#920,#921));
#923=IFCGRIDAXIS('27',#922,.T.);
#924=IFCGEOMETRICCURVESET((#922));
#925=IFCCOLOURRGB($,0.,0.,0.);
#926=IFCCURVESTYLE($,$,$,#925);
#927=IFCPRESENTATIONSTYLEASSIGNMENT((#926));
#928=IFCSTYLEDITEM(#924,(#927),$);
#929=IFCCARTESIANPOINT((1322.,-152400.));
#930=IFCCARTESIANPOINT((1322.,152400.));
#931=IFCPOLYLINE((#929,#930));
#932=IFCGRIDAXIS('13',#931,.T.);
#933=IFCGEOMETRICCURVESET((#931));
#934=IFCCOLOURRGB($,0.,0.,0.);
#935=IFCCURVESTYLE($,$,$,#934);
#936=IFCPRESENTATIONSTYLEASSIGNMENT((#935));
#937=IFCSTYLEDITEM(#933,(#936),$);
#938=IFCCARTESIANPOINT((1531.5000000001664,-152400.));
#939=IFCCARTESIANPOINT((1531.4999999997635,152400.));
#940=IFCPOLYLINE((#938,#939));
#941=IFCGRIDAXIS('14',#940,.T.);
#942=IFCGEOMETRICCURVESET((#940));
#943=IFCCOLOURRGB($,0.,0.,0.);
#944=IFCCURVESTYLE($,$,$,#943);
#945=IFCPRESENTATIONSTYLEASSIGNMENT((#944));
#946=IFCSTYLEDITEM(#942,(#945),$);
#947=IFCSHAPEREPRESENTATION(#26,'FootPrint','GeometricCurveSet',(#807,#816,#825,#834,#843,#852,#861,#870,#879,#888,#897,#906,#915,#924,#933,#942));
#948=IFCPRODUCTDEFINITIONSHAPE($,$,(#947));
#949=IFCLOCALPLACEMENT(#30,#49);
#950=IFCGRID('3EFWvP66Sw_EzczcrIk3Hu',#18,'Default Grid',$,$,#949,#948,(#806,#815,#824,#833,#842,#851,#860,#869),(#878,#887,#896,#905,#914,#923),(#932,#941));
#951=IFCCARTESIANPOINT((6434.3428411517425,-1208.5000000000257));
#952=IFCCARTESIANPOINT((-5805.2589419698988,-1208.4999999999861));
#953=IFCPOLYLINE((#951,#952));
#954=IFCGRIDAXIS('8',#953,.T.);
#955=IFCGEOMETRICCURVESET((#953));
#956=IFCCOLOURRGB($,0.,0.,0.);
#957=IFCCURVESTYLE($,$,$,#956);
#958=IFCPRESENTATIONSTYLEASSIGNMENT((#957));
#959=IFCSTYLEDITEM(#955,(#958),$);
#960=IFCCARTESIANPOINT((6434.3428411517689,7208.4999999999718));
#961=IFCCARTESIANPOINT((-5805.2589419698706,7208.5000000000082));
#962=IFCPOLYLINE((#960,#961));
#963=IFCGRIDAXIS('10',#962,.T.);
#964=IFCGEOMETRICCURVESET((#962));
#965=IFCCOLOURRGB($,0.,0.,0.);
#966=IFCCURVESTYLE($,$,$,#965);
#967=IFCPRESENTATIONSTYLEASSIGNMENT((#966));
#968=IFCSTYLEDITEM(#964,(#967),$);
#969=IFCCARTESIANPOINT((152400.,2874.));
#970=IFCCARTESIANPOINT((-152798.57246912955,2874.));
#971=IFCPOLYLINE((#969,#970));
#972=IFCGRIDAXIS('15',#971,.T.);
#973=IFCGEOMETRICCURVESET((#971));
#974=IFCCOLOURRGB($,0.,0.,0.);
#975=IFCCURVESTYLE($,$,$,#974);
#976=IFCPRESENTATIONSTYLEASSIGNMENT((#975));
#977=IFCSTYLEDITEM(#973,(#976),$);
#978=IFCCARTESIANPOINT((152400.,3126.));
#979=IFCCARTESIANPOINT((-152798.57246912955,3126.));
#980=IFCPOLYLINE((#978,#979));
#981=IFCGRIDAXIS('16',#980,.T.);
#982=IFCGEOMETRICCURVESET((#980));
#983=IFCCOLOURRGB($,0.,0.,0.);
#984=IFCCURVESTYLE($,$,$,#983);
#985=IFCPRESENTATIONSTYLEASSIGNMENT((#984));
#986=IFCSTYLEDITEM(#982,(#985),$);
#987=IFCCARTESIANPOINT((4336.7890850012127,2586.));
#988=IFCCARTESIANPOINT((62.,2586.));
#989=IFCPOLYLINE((#987,#988));
#990=IFCGRIDAXIS('17',#989,.T.);
#991=IFCGEOMETRICCURVESET((#989));
#992=IFCCOLOURRGB($,0.,0.,0.);
#993=IFCCURVESTYLE($,$,$,#992);
#994=IFCPRESENTATIONSTYLEASSIGNMENT((#993));
#995=IFCSTYLEDITEM(#991,(#994),$);
#996=IFCCARTESIANPOINT((4336.7890850012154,3414.));
#997=IFCCARTESIANPOINT((62.,3414.));
#998=IFCPOLYLINE((#996,#997));
#999=IFCGRIDAXIS('18',#998,.T.);
#1000=IFCGEOMETRICCURVESET((#998));
#1001=IFCCOLOURRGB($,0.,0.,0.);
#1002=IFCCURVESTYLE($,$,$,#1001);
#1003=IFCPRESENTATIONSTYLEASSIGNMENT((#1002));
#1004=IFCSTYLEDITEM(#1000,(#1003),$);
#1005=IFCCARTESIANPOINT((6434.3428411517416,-848.5000000000191));
#1006=IFCCARTESIANPOINT((-5805.2589419698979,-848.49999999997954));
#1007=IFCPOLYLINE((#1005,#1006));
#1008=IFCGRIDAXIS('25',#1007,.T.);
#1009=IFCGEOMETRICCURVESET((#1007));
#1010=IFCCOLOURRGB($,0.,0.,0.);
#1011=IFCCURVESTYLE($,$,$,#1010);
#1012=IFCPRESENTATIONSTYLEASSIGNMENT((#1011));
#1013=IFCSTYLEDITEM(#1009,(#1012),$);
#1014=IFCCARTESIANPOINT((6434.3428411517662,6848.4999999999782));
#1015=IFCCARTESIANPOINT((-5805.2589419698725,6848.50000000002));
#1016=IFCPOLYLINE((#1014,#1015));
#1017=IFCGRIDAXIS('28',#1016,.T.);
#1018=IFCGEOMETRICCURVESET((#1016));
#1019=IFCCOLOURRGB($,0.,0.,0.);
#1020=IFCCURVESTYLE($,$,$,#1019);
#1021=IFCPRESENTATIONSTYLEASSIGNMENT((#1020));
#1022=IFCSTYLEDITEM(#1018,(#1021),$);
#1023=IFCCARTESIANPOINT((4208.5000000000136,9435.0061832160518));
#1024=IFCCARTESIANPOINT((4208.4999999999936,-2625.0728218227782));
#1025=IFCPOLYLINE((#1023,#1024));
#1026=IFCGRIDAXIS('9',#1025,.T.);
#1027=IFCGEOMETRICCURVESET((#1025));
#1028=IFCCOLOURRGB($,0.,0.,0.);
#1029=IFCCURVESTYLE($,$,$,#1028);
#1030=IFCPRESENTATIONSTYLEASSIGNMENT((#1029));
#1031=IFCSTYLEDITEM(#1027,(#1030),$);
#1032=IFCCARTESIANPOINT((-4208.4999999999864,9435.0061832160645));
#1033=IFCCARTESIANPOINT((-4208.5000000000064,-2625.072821822765));
#1034=IFCPOLYLINE((#1032,#1033));
#1035=IFCGRIDAXIS('7',#1034,.T.);
#1036=IFCGEOMETRICCURVESET((#1034));
#1037=IFCCOLOURRGB($,0.,0.,0.);
#1038=IFCCURVESTYLE($,$,$,#1037);
#1039=IFCPRESENTATIONSTYLEASSIGNMENT((#1038));
#1040=IFCSTYLEDITEM(#1036,(#1039),$);
#1041=IFCCARTESIANPOINT((62.,7650.8051367088028));
#1042=IFCCARTESIANPOINT((62.,-1100.4316020733406));
#1043=IFCPOLYLINE((#1041,#1042));
#1044=IFCGRIDAXIS('23',#1043,.T.);
#1045=IFCGEOMETRICCURVESET((#1043));
#1046=IFCCOLOURRGB($,0.,0.,0.);
#1047=IFCCURVESTYLE($,$,$,#1046);
#1048=IFCPRESENTATIONSTYLEASSIGNMENT((#1047));
#1049=IFCSTYLEDITEM(#1045,(#1048),$);
#1050=IFCCARTESIANPOINT((-62.,7650.8051367088028));
#1051=IFCCARTESIANPOINT((-62.,-1100.4316020733406));
#1052=IFCPOLYLINE((#1050,#1051));
#1053=IFCGRIDAXIS('24',#1052,.T.);
#1054=IFCGEOMETRICCURVESET((#1052));
#1055=IFCCOLOURRGB($,0.,0.,0.);
#1056=IFCCURVESTYLE($,$,$,#1055);
#1057=IFCPRESENTATIONSTYLEASSIGNMENT((#1056));
#1058=IFCSTYLEDITEM(#1054,(#1057),$);
#1059=IFCCARTESIANPOINT((-3848.4999999999936,9435.0061832160645));
#1060=IFCCARTESIANPOINT((-3848.5000000000132,-2625.072821822765));
#1061=IFCPOLYLINE((#1059,#1060));
#1062=IFCGRIDAXIS('26',#1061,.T.);
#1063=IFCGEOMETRICCURVESET((#1061));
#1064=IFCCOLOURRGB($,0.,0.,0.);
#1065=IFCCURVESTYLE($,$,$,#1064);
#1066=IFCPRESENTATIONSTYLEASSIGNMENT((#1065));
#1067=IFCSTYLEDITEM(#1063,(#1066),$);
#1068=IFCCARTESIANPOINT((3848.500000000005,9435.0061832160518));
#1069=IFCCARTESIANPOINT((3848.4999999999854,-2625.0728218227782));
#1070=IFCPOLYLINE((#1068,#1069));
#1071=IFCGRIDAXIS('27',#1070,.T.);
#1072=IFCGEOMETRICCURVESET((#1070));
#1073=IFCCOLOURRGB($,0.,0.,0.);
#1074=IFCCURVESTYLE($,$,$,#1073);
#1075=IFCPRESENTATIONSTYLEASSIGNMENT((#1074));
#1076=IFCSTYLEDITEM(#1072,(#1075),$);
#1077=IFCCARTESIANPOINT((1322.,-152400.));
#1078=IFCCARTESIANPOINT((1322.,152400.));
#1079=IFCPOLYLINE((#1077,#1078));
#1080=IFCGRIDAXIS('13',#1079,.T.);
#1081=IFCGEOMETRICCURVESET((#1079));
#1082=IFCCOLOURRGB($,0.,0.,0.);
#1083=IFCCURVESTYLE($,$,$,#1082);
#1084=IFCPRESENTATIONSTYLEASSIGNMENT((#1083));
#1085=IFCSTYLEDITEM(#1081,(#1084),$);
#1086=IFCCARTESIANPOINT((1531.5000000001664,-152400.));
#1087=IFCCARTESIANPOINT((1531.4999999997635,152400.));
#1088=IFCPOLYLINE((#1086,#1087));
#1089=IFCGRIDAXIS('14',#1088,.T.);
#1090=IFCGEOMETRICCURVESET((#1088));
#1091=IFCCOLOURRGB($,0.,0.,0.);
#1092=IFCCURVESTYLE($,$,$,#1091);
#1093=IFCPRESENTATIONSTYLEASSIGNMENT((#1092));
#1094=IFCSTYLEDITEM(#1090,(#1093),$);
#1095=IFCSHAPEREPRESENTATION(#26,'FootPrint','GeometricCurveSet',(#955,#964,#973,#982,#991,#1000,#1009,#1018,#1027,#1036,#1045,#1054,#1063,#1072,#1081,#1090));
#1096=IFCPRODUCTDEFINITIONSHAPE($,$,(#1095));
#1097=IFCLOCALPLACEMENT(#30,#53);
#1098=IFCGRID('3KZz2JEqZOBb1zXHzoIEQJ',#18,'Default Grid',$,$,#1097,#1096,(#954,#963,#972,#981,#990,#999,#1008,#1017),(#1026,#1035,#1044,#1053,#1062,#1071),(#1080,#1089));
#1099=IFCCARTESIANPOINT((6434.3428411517425,-1208.5000000000257));
#1100=IFCCARTESIANPOINT((-5805.2589419698988,-1208.4999999999861));
#1101=IFCPOLYLINE((#1099,#1100));
#1102=IFCGRIDAXIS('8',#1101,.T.);
#1103=IFCGEOMETRICCURVESET((#1101));
#1104=IFCCOLOURRGB($,0.,0.,0.);
#1105=IFCCURVESTYLE($,$,$,#1104);
#1106=IFCPRESENTATIONSTYLEASSIGNMENT((#1105));
#1107=IFCSTYLEDITEM(#1103,(#1106),$);
#1108=IFCCARTESIANPOINT((6434.3428411517689,7208.4999999999718));
#1109=IFCCARTESIANPOINT((-5805.2589419698706,7208.5000000000082));
#1110=IFCPOLYLINE((#1108,#1109));
#1111=IFCGRIDAXIS('10',#1110,.T.);
#1112=IFCGEOMETRICCURVESET((#1110));
#1113=IFCCOLOURRGB($,0.,0.,0.);
#1114=IFCCURVESTYLE($,$,$,#1113);
#1115=IFCPRESENTATIONSTYLEASSIGNMENT((#1114));
#1116=IFCSTYLEDITEM(#1112,(#1115),$);
#1117=IFCCARTESIANPOINT((152400.,2874.));
#1118=IFCCARTESIANPOINT((-152798.57246912955,2874.));
#1119=IFCPOLYLINE((#1117,#1118));
#1120=IFCGRIDAXIS('15',#1119,.T.);
#1121=IFCGEOMETRICCURVESET((#1119));
#1122=IFCCOLOURRGB($,0.,0.,0.);
#1123=IFCCURVESTYLE($,$,$,#1122);
#1124=IFCPRESENTATIONSTYLEASSIGNMENT((#1123));
#1125=IFCSTYLEDITEM(#1121,(#1124),$);
#1126=IFCCARTESIANPOINT((152400.,3126.));
#1127=IFCCARTESIANPOINT((-152798.57246912955,3126.));
#1128=IFCPOLYLINE((#1126,#1127));
#1129=IFCGRIDAXIS('16',#1128,.T.);
#1130=IFCGEOMETRICCURVESET((#1128));
#1131=IFCCOLOURRGB($,0.,0.,0.);
#1132=IFCCURVESTYLE($,$,$,#1131);
#1133=IFCPRESENTATIONSTYLEASSIGNMENT((#1132));
#1134=IFCSTYLEDITEM(#1130,(#1133),$);
#1135=IFCCARTESIANPOINT((4336.7890850012127,2586.));
#1136=IFCCARTESIANPOINT((62.,2586.));
#1137=IFCPOLYLINE((#1135,#1136));
#1138=IFCGRIDAXIS('17',#1137,.T.);
#1139=IFCGEOMETRICCURVESET((#1137));
#1140=IFCCOLOURRGB($,0.,0.,0.);
#1141=IFCCURVESTYLE($,$,$,#1140);
#1142=IFCPRESENTATIONSTYLEASSIGNMENT((#1141));
#1143=IFCSTYLEDITEM(#1139,(#1142),$);
#1144=IFCCARTESIANPOINT((4336.7890850012154,3414.));
#1145=IFCCARTESIANPOINT((62.,3414.));
#1146=IFCPOLYLINE((#1144,#1145));
#1147=IFCGRIDAXIS('18',#1146,.T.);
#1148=IFCGEOMETRICCURVESET((#1146));
#1149=IFCCOLOURRGB($,0.,0.,0.);
#1150=IFCCURVESTYLE($,$,$,#1149);
#1151=IFCPRESENTATIONSTYLEASSIGNMENT((#1150));
#1152=IFCSTYLEDITEM(#1148,(#1151),$);
#1153=IFCCARTESIANPOINT((6434.3428411517416,-848.5000000000191));
#1154=IFCCARTESIANPOINT((-5805.2589419698979,-848.49999999997954));
#1155=IFCPOLYLINE((#1153,#1154));
#1156=IFCGRIDAXIS('25',#1155,.T.);
#1157=IFCGEOMETRICCURVESET((#1155));
#1158=IFCCOLOURRGB($,0.,0.,0.);
#1159=IFCCURVESTYLE($,$,$,#1158);
#1160=IFCPRESENTATIONSTYLEASSIGNMENT((#1159));
#1161=IFCSTYLEDITEM(#1157,(#1160),$);
#1162=IFCCARTESIANPOINT((6434.3428411517662,6848.4999999999782));
#1163=IFCCARTESIANPOINT((-5805.2589419698725,6848.50000000002));
#1164=IFCPOLYLINE((#1162,#1163));
#1165=IFCGRIDAXIS('28',#1164,.T.);
#1166=IFCGEOMETRICCURVESET((#1164));
#1167=IFCCOLOURRGB($,0.,0.,0.);
#1168=IFCCURVESTYLE($,$,$,#1167);
#1169=IFCPRESENTATIONSTYLEASSIGNMENT((#1168));
#1170=IFCSTYLEDITEM(#1166,(#1169),$);
#1171=IFCCARTESIANPOINT((4208.5000000000136,9435.0061832160518));
#1172=IFCCARTESIANPOINT((4208.4999999999936,-2625.0728218227782));
#1173=IFCPOLYLINE((#1171,#1172));
#1174=IFCGRIDAXIS('9',#1173,.T.);
#1175=IFCGEOMETRICCURVESET((#1173));
#1176=IFCCOLOURRGB($,0.,0.,0.);
#1177=IFCCURVESTYLE($,$,$,#1176);
#1178=IFCPRESENTATIONSTYLEASSIGNMENT((#1177));
#1179=IFCSTYLEDITEM(#1175,(#1178),$);
#1180=IFCCARTESIANPOINT((-4208.4999999999864,9435.0061832160645));
#1181=IFCCARTESIANPOINT((-4208.5000000000064,-2625.072821822765));
#1182=IFCPOLYLINE((#1180,#1181));
#1183=IFCGRIDAXIS('7',#1182,.T.);
#1184=IFCGEOMETRICCURVESET((#1182));
#1185=IFCCOLOURRGB($,0.,0.,0.);
#1186=IFCCURVESTYLE($,$,$,#1185);
#1187=IFCPRESENTATIONSTYLEASSIGNMENT((#1186));
#1188=IFCSTYLEDITEM(#1184,(#1187),$);
#1189=IFCCARTESIANPOINT((62.,7650.8051367088028));
#1190=IFCCARTESIANPOINT((62.,-1100.4316020733406));
#1191=IFCPOLYLINE((#1189,#1190));
#1192=IFCGRIDAXIS('23',#1191,.T.);
#1193=IFCGEOMETRICCURVESET((#1191));
#1194=IFCCOLOURRGB($,0.,0.,0.);
#1195=IFCCURVESTYLE($,$,$,#1194);
#1196=IFCPRESENTATIONSTYLEASSIGNMENT((#1195));
#1197=IFCSTYLEDITEM(#1193,(#1196),$);
#1198=IFCCARTESIANPOINT((-62.,7650.8051367088028));
#1199=IFCCARTESIANPOINT((-62.,-1100.4316020733406));
#1200=IFCPOLYLINE((#1198,#1199));
#1201=IFCGRIDAXIS('24',#1200,.T.);
#1202=IFCGEOMETRICCURVESET((#1200));
#1203=IFCCOLOURRGB($,0.,0.,0.);
#1204=IFCCURVESTYLE($,$,$,#1203);
#1205=IFCPRESENTATIONSTYLEASSIGNMENT((#1204));
#1206=IFCSTYLEDITEM(#1202,(#1205),$);
#1207=IFCCARTESIANPOINT((-3848.4999999999936,9435.0061832160645));
#1208=IFCCARTESIANPOINT((-3848.5000000000132,-2625.072821822765));
#1209=IFCPOLYLINE((#1207,#1208));
#1210=IFCGRIDAXIS('26',#1209,.T.);
#1211=IFCGEOMETRICCURVESET((#1209));
#1212=IFCCOLOURRGB($,0.,0.,0.);
#1213=IFCCURVESTYLE($,$,$,#1212);
#1214=IFCPRESENTATIONSTYLEASSIGNMENT((#1213));
#1215=IFCSTYLEDITEM(#1211,(#1214),$);
#1216=IFCCARTESIANPOINT((3848.500000000005,9435.0061832160518));
#1217=IFCCARTESIANPOINT((3848.4999999999854,-2625.0728218227782));
#1218=IFCPOLYLINE((#1216,#1217));
#1219=IFCGRIDAXIS('27',#1218,.T.);
#1220=IFCGEOMETRICCURVESET((#1218));
#1221=IFCCOLOURRGB($,0.,0.,0.);
#1222=IFCCURVESTYLE($,$,$,#1221);
#1223=IFCPRESENTATIONSTYLEASSIGNMENT((#1222));
#1224=IFCSTYLEDITEM(#1220,(#1223),$);
#1225=IFCCARTESIANPOINT((1322.,-152400.));
#1226=IFCCARTESIANPOINT((1322.,152400.));
#1227=IFCPOLYLINE((#1225,#1226));
#1228=IFCGRIDAXIS('13',#1227,.T.);
#1229=IFCGEOMETRICCURVESET((#1227));
#1230=IFCCOLOURRGB($,0.,0.,0.);
#1231=IFCCURVESTYLE($,$,$,#1230);
#1232=IFCPRESENTATIONSTYLEASSIGNMENT((#1231));
#1233=IFCSTYLEDITEM(#1229,(#1232),$);
#1234=IFCCARTESIANPOINT((1531.5000000001664,-152400.));
#1235=IFCCARTESIANPOINT((1531.4999999997635,152400.));
#1236=IFCPOLYLINE((#1234,#1235));
#1237=IFCGRIDAXIS('14',#1236,.T.);
#1238=IFCGEOMETRICCURVESET((#1236));
#1239=IFCCOLOURRGB($,0.,0.,0.);
#1240=IFCCURVESTYLE($,$,$,#1239);
#1241=IFCPRESENTATIONSTYLEASSIGNMENT((#1240));
#1242=IFCSTYLEDITEM(#1238,(#1241),$);
#1243=IFCSHAPEREPRESENTATION(#26,'FootPrint','GeometricCurveSet',(#1103,#1112,#1121,#1130,#1139,#1148,#1157,#1166,#1175,#1184,#1193,#1202,#1211,#1220,#1229,#1238));
#1244=IFCPRODUCTDEFINITIONSHAPE($,$,(#1243));
#1245=IFCLOCALPLACEMENT(#30,#57);
#1246=IFCGRID('1FA9uNZtNw_WHdng2Xxwz7',#18,'Default Grid',$,$,#1245,#1244,(#1102,#1111,#1120,#1129,#1138,#1147,#1156,#1165),(#1174,#1183,#1192,#1201,#1210,#1219),(#1228,#1237));
#1247=IFCCARTESIANPOINT((6434.3428411517425,-1208.5000000000257));
#1248=IFCCARTESIANPOINT((-5805.2589419698988,-1208.4999999999861));
#1249=IFCPOLYLINE((#1247,#1248));
#1250=IFCGRIDAXIS('8',#1249,.T.);
#1251=IFCGEOMETRICCURVESET((#1249));
#1252=IFCCOLOURRGB($,0.,0.,0.);
#1253=IFCCURVESTYLE($,$,$,#1252);
#1254=IFCPRESENTATIONSTYLEASSIGNMENT((#1253));
#1255=IFCSTYLEDITEM(#1251,(#1254),$);
#1256=IFCCARTESIANPOINT((6434.3428411517689,7208.4999999999718));
#1257=IFCCARTESIANPOINT((-5805.2589419698706,7208.5000000000082));
#1258=IFCPOLYLINE((#1256,#1257));
#1259=IFCGRIDAXIS('10',#1258,.T.);
#1260=IFCGEOMETRICCURVESET((#1258));
#1261=IFCCOLOURRGB($,0.,0.,0.);
#1262=IFCCURVESTYLE($,$,$,#1261);
#1263=IFCPRESENTATIONSTYLEASSIGNMENT((#1262));
#1264=IFCSTYLEDITEM(#1260,(#1263),$);
#1265=IFCCARTESIANPOINT((152400.,2874.));
#1266=IFCCARTESIANPOINT((-152798.57246912955,2874.));
#1267=IFCPOLYLINE((#1265,#1266));
#1268=IFCGRIDAXIS('15',#1267,.T.);
#1269=IFCGEOMETRICCURVESET((#1267));
#1270=IFCCOLOURRGB($,0.,0.,0.);
#1271=IFCCURVESTYLE($,$,$,#1270);
#1272=IFCPRESENTATIONSTYLEASSIGNMENT((#1271));
#1273=IFCSTYLEDITEM(#1269,(#1272),$);
#1274=IFCCARTESIANPOINT((152400.,3126.));
#1275=IFCCARTESIANPOINT((-152798.57246912955,3126.));
#1276=IFCPOLYLINE((#1274,#1275));
#1277=IFCGRIDAXIS('16',#1276,.T.);
#1278=IFCGEOMETRICCURVESET((#1276));
#1279=IFCCOLOURRGB($,0.,0.,0.);
#1280=IFCCURVESTYLE($,$,$,#1279);
#1281=IFCPRESENTATIONSTYLEASSIGNMENT((#1280));
#1282=IFCSTYLEDITEM(#1278,(#1281),$);
#1283=IFCCARTESIANPOINT((4336.7890850012127,2586.));
#1284=IFCCARTESIANPOINT((62.,2586.));
#1285=IFCPOLYLINE((#1283,#1284));
#1286=IFCGRIDAXIS('17',#1285,.T.);
#1287=IFCGEOMETRICCURVESET((#1285));
#1288=IFCCOLOURRGB($,0.,0.,0.);
#1289=IFCCURVESTYLE($,$,$,#1288);
#1290=IFCPRESENTATIONSTYLEASSIGNMENT((#1289));
#1291=IFCSTYLEDITEM(#1287,(#1290),$);
#1292=IFCCARTESIANPOINT((4336.7890850012154,3414.));
#1293=IFCCARTESIANPOINT((62.,3414.));
#1294=IFCPOLYLINE((#1292,#1293));
#1295=IFCGRIDAXIS('18',#1294,.T.);
#1296=IFCGEOMETRICCURVESET((#1294));
#1297=IFCCOLOURRGB($,0.,0.,0.);
#1298=IFCCURVESTYLE($,$,$,#1297);
#1299=IFCPRESENTATIONSTYLEASSIGNMENT((#1298));
#1300=IFCSTYLEDITEM(#1296,(#1299),$);
#1301=IFCCARTESIANPOINT((6434.3428411517416,-848.5000000000191));
#1302=IFCCARTESIANPOINT((-5805.2589419698979,-848.49999999997954));
#1303=IFCPOLYLINE((#1301,#1302));
#1304=IFCGRIDAXIS('25',#1303,.T.);
#1305=IFCGEOMETRICCURVESET((#1303));
#1306=IFCCOLOURRGB($,0.,0.,0.);
#1307=IFCCURVESTYLE($,$,$,#1306);
#1308=IFCPRESENTATIONSTYLEASSIGNMENT((#1307));
#1309=IFCSTYLEDITEM(#1305,(#1308),$);
#1310=IFCCARTESIANPOINT((6434.3428411517662,6848.4999999999782));
#1311=IFCCARTESIANPOINT((-5805.2589419698725,6848.50000000002));
#1312=IFCPOLYLINE((#1310,#1311));
#1313=IFCGRIDAXIS('28',#1312,.T.);
#1314=IFCGEOMETRICCURVESET((#1312));
#1315=IFCCOLOURRGB($,0.,0.,0.);
#1316=IFCCURVESTYLE($,$,$,#1315);
#1317=IFCPRESENTATIONSTYLEASSIGNMENT((#1316));
#1318=IFCSTYLEDITEM(#1314,(#1317),$);
#1319=IFCCARTESIANPOINT((4208.5000000000136,9435.0061832160518));
#1320=IFCCARTESIANPOINT((4208.4999999999936,-2625.0728218227782));
#1321=IFCPOLYLINE((#1319,#1320));
#1322=IFCGRIDAXIS('9',#1321,.T.);
#1323=IFCGEOMETRICCURVESET((#1321));
#1324=IFCCOLOURRGB($,0.,0.,0.);
#1325=IFCCURVESTYLE($,$,$,#1324);
#1326=IFCPRESENTATIONSTYLEASSIGNMENT((#1325));
#1327=IFCSTYLEDITEM(#1323,(#1326),$);
#1328=IFCCARTESIANPOINT((-4208.4999999999864,9435.0061832160645));
#1329=IFCCARTESIANPOINT((-4208.5000000000064,-2625.072821822765));
#1330=IFCPOLYLINE((#1328,#1329));
#1331=IFCGRIDAXIS('7',#1330,.T.);
#1332=IFCGEOMETRICCURVESET((#1330));
#1333=IFCCOLOURRGB($,0.,0.,0.);
#1334=IFCCURVESTYLE($,$,$,#1333);
#1335=IFCPRESENTATIONSTYLEASSIGNMENT((#1334));
#1336=IFCSTYLEDITEM(#1332,(#1335),$);
#1337=IFCCARTESIANPOINT((62.,7650.8051367088028));
#1338=IFCCARTESIANPOINT((62.,-1100.4316020733406));
#1339=IFCPOLYLINE((#1337,#1338));
#1340=IFCGRIDAXIS('23',#1339,.T.);
#1341=IFCGEOMETRICCURVESET((#1339));
#1342=IFCCOLOURRGB($,0.,0.,0.);
#1343=IFCCURVESTYLE($,$,$,#1342);
#1344=IFCPRESENTATIONSTYLEASSIGNMENT((#1343));
#1345=IFCSTYLEDITEM(#1341,(#1344),$);
#1346=IFCCARTESIANPOINT((-62.,7650.8051367088028));
#1347=IFCCARTESIANPOINT((-62.,-1100.4316020733406));
#1348=IFCPOLYLINE((#1346,#1347));
#1349=IFCGRIDAXIS('24',#1348,.T.);
#1350=IFCGEOMETRICCURVESET((#1348));
#1351=IFCCOLOURRGB($,0.,0.,0.);
#1352=IFCCURVESTYLE($,$,$,#1351);
#1353=IFCPRESENTATIONSTYLEASSIGNMENT((#1352));
#1354=IFCSTYLEDITEM(#1350,(#1353),$);
#1355=IFCCARTESIANPOINT((-3848.4999999999936,9435.0061832160645));
#1356=IFCCARTESIANPOINT((-3848.5000000000132,-2625.072821822765));
#1357=IFCPOLYLINE((#1355,#1356));
#1358=IFCGRIDAXIS('26',#1357,.T.);
#1359=IFCGEOMETRICCURVESET((#1357));
#1360=IFCCOLOURRGB($,0.,0.,0.);
#1361=IFCCURVESTYLE($,$,$,#1360);
#1362=IFCPRESENTATIONSTYLEASSIGNMENT((#1361));
#1363=IFCSTYLEDITEM(#1359,(#1362),$);
#1364=IFCCARTESIANPOINT((3848.500000000005,9435.0061832160518));
#1365=IFCCARTESIANPOINT((3848.4999999999854,-2625.0728218227782));
#1366=IFCPOLYLINE((#1364,#1365));
#1367=IFCGRIDAXIS('27',#1366,.T.);
#1368=IFCGEOMETRICCURVESET((#1366));
#1369=IFCCOLOURRGB($,0.,0.,0.);
#1370=IFCCURVESTYLE($,$,$,#1369);
#1371=IFCPRESENTATIONSTYLEASSIGNMENT((#1370));
#1372=IFCSTYLEDITEM(#1368,(#1371),$);
#1373=IFCCARTESIANPOINT((1322.,-152400.));
#1374=IFCCARTESIANPOINT((1322.,152400.));
#1375=IFCPOLYLINE((#1373,#1374));
#1376=IFCGRIDAXIS('13',#1375,.T.);
#1377=IFCGEOMETRICCURVESET((#1375));
#1378=IFCCOLOURRGB($,0.,0.,0.);
#1379=IFCCURVESTYLE($,$,$,#1378);
#1380=IFCPRESENTATIONSTYLEASSIGNMENT((#1379));
#1381=IFCSTYLEDITEM(#1377,(#1380),$);
#1382=IFCCARTESIANPOINT((1531.5000000001664,-152400.));
#1383=IFCCARTESIANPOINT((1531.4999999997635,152400.));
#1384=IFCPOLYLINE((#1382,#1383));
#1385=IFCGRIDAXIS('14',#1384,.T.);
#1386=IFCGEOMETRICCURVESET((#1384));
#1387=IFCCOLOURRGB($,0.,0.,0.);
#1388=IFCCURVESTYLE($,$,$,#1387);
#1389=IFCPRESENTATIONSTYLEASSIGNMENT((#1388));
#1390=IFCSTYLEDITEM(#1386,(#1389),$);
#1391=IFCSHAPEREPRESENTATION(#26,'FootPrint','GeometricCurveSet',(#1251,#1260,#1269,#1278,#1287,#1296,#1305,#1314,#1323,#1332,#1341,#1350,#1359,#1368,#1377,#1386));
#1392=IFCPRODUCTDEFINITIONSHAPE($,$,(#1391));
#1393=IFCLOCALPLACEMENT(#30,#61);
#1394=IFCGRID('0fYM1UqaVfSzWwniGWVRdb',#18,'Default Grid',$,$,#1393,#1392,(#1250,#1259,#1268,#1277,#1286,#1295,#1304,#1313),(#1322,#1331,#1340,#1349,#1358,#1367),(#1376,#1385));
#1395=IFCCARTESIANPOINT((6434.3428411517425,-1208.5000000000257));
#1396=IFCCARTESIANPOINT((-5805.2589419698988,-1208.4999999999861));
#1397=IFCPOLYLINE((#1395,#1396));
#1398=IFCGRIDAXIS('8',#1397,.T.);
#1399=IFCGEOMETRICCURVESET((#1397));
#1400=IFCCOLOURRGB($,0.,0.,0.);
#1401=IFCCURVESTYLE($,$,$,#1400);
#1402=IFCPRESENTATIONSTYLEASSIGNMENT((#1401));
#1403=IFCSTYLEDITEM(#1399,(#1402),$);
#1404=IFCCARTESIANPOINT((6434.3428411517689,7208.4999999999718));
#1405=IFCCARTESIANPOINT((-5805.2589419698706,7208.5000000000082));
#1406=IFCPOLYLINE((#1404,#1405));
#1407=IFCGRIDAXIS('10',#1406,.T.);
#1408=IFCGEOMETRICCURVESET((#1406));
#1409=IFCCOLOURRGB($,0.,0.,0.);
#1410=IFCCURVESTYLE($,$,$,#1409);
#1411=IFCPRESENTATIONSTYLEASSIGNMENT((#1410));
#1412=IFCSTYLEDITEM(#1408,(#1411),$);
#1413=IFCCARTESIANPOINT((152400.,2874.));
#1414=IFCCARTESIANPOINT((-152798.57246912955,2874.));
#1415=IFCPOLYLINE((#1413,#1414));
#1416=IFCGRIDAXIS('15',#1415,.T.);
#1417=IFCGEOMETRICCURVESET((#1415));
#1418=IFCCOLOURRGB($,0.,0.,0.);
#1419=IFCCURVESTYLE($,$,$,#1418);
#1420=IFCPRESENTATIONSTYLEASSIGNMENT((#1419));
#1421=IFCSTYLEDITEM(#1417,(#1420),$);
#1422=IFCCARTESIANPOINT((152400.,3126.));
#1423=IFCCARTESIANPOINT((-152798.57246912955,3126.));
#1424=IFCPOLYLINE((#1422,#1423));
#1425=IFCGRIDAXIS('16',#1424,.T.);
#1426=IFCGEOMETRICCURVESET((#1424));
#1427=IFCCOLOURRGB($,0.,0.,0.);
#1428=IFCCURVESTYLE($,$,$,#1427);
#1429=IFCPRESENTATIONSTYLEASSIGNMENT((#1428));
#1430=IFCSTYLEDITEM(#1426,(#1429),$);
#1431=IFCCARTESIANPOINT((4336.7890850012127,2586.));
#1432=IFCCARTESIANPOINT((62.,2586.));
#1433=IFCPOLYLINE((#1431,#1432));
#1434=IFCGRIDAXIS('17',#1433,.T.);
#1435=IFCGEOMETRICCURVESET((#1433));
#1436=IFCCOLOURRGB($,0.,0.,0.);
#1437=IFCCURVESTYLE($,$,$,#1436);
#1438=IFCPRESENTATIONSTYLEASSIGNMENT((#1437));
#1439=IFCSTYLEDITEM(#1435,(#1438),$);
#1440=IFCCARTESIANPOINT((4336.7890850012154,3414.));
#1441=IFCCARTESIANPOINT((62.,3414.));
#1442=IFCPOLYLINE((#1440,#1441));
#1443=IFCGRIDAXIS('18',#1442,.T.);
#1444=IFCGEOMETRICCURVESET((#1442));
#1445=IFCCOLOURRGB($,0.,0.,0.);
#1446=IFCCURVESTYLE($,$,$,#1445);
#1447=IFCPRESENTATIONSTYLEASSIGNMENT((#1446));
#1448=IFCSTYLEDITEM(#1444,(#1447),$);
#1449=IFCCARTESIANPOINT((6434.3428411517416,-848.5000000000191));
#1450=IFCCARTESIANPOINT((-5805.2589419698979,-848.49999999997954));
#1451=IFCPOLYLINE((#1449,#1450));
#1452=IFCGRIDAXIS('25',#1451,.T.);
#1453=IFCGEOMETRICCURVESET((#1451));
#1454=IFCCOLOURRGB($,0.,0.,0.);
#1455=IFCCURVESTYLE($,$,$,#1454);
#1456=IFCPRESENTATIONSTYLEASSIGNMENT((#1455));
#1457=IFCSTYLEDITEM(#1453,(#1456),$);
#1458=IFCCARTESIANPOINT((6434.3428411517662,6848.4999999999782));
#1459=IFCCARTESIANPOINT((-5805.2589419698725,6848.50000000002));
#1460=IFCPOLYLINE((#1458,#1459));
#1461=IFCGRIDAXIS('28',#1460,.T.);
#1462=IFCGEOMETRICCURVESET((#1460));
#1463=IFCCOLOURRGB($,0.,0.,0.);
#1464=IFCCURVESTYLE($,$,$,#1463);
#1465=IFCPRESENTATIONSTYLEASSIGNMENT((#1464));
#1466=IFCSTYLEDITEM(#1462,(#1465),$);
#1467=IFCCARTESIANPOINT((4208.5000000000136,9435.0061832160518));
#1468=IFCCARTESIANPOINT((4208.4999999999936,-2625.0728218227782));
#1469=IFCPOLYLINE((#1467,#1468));
#1470=IFCGRIDAXIS('9',#1469,.T.);
#1471=IFCGEOMETRICCURVESET((#1469));
#1472=IFCCOLOURRGB($,0.,0.,0.);
#1473=IFCCURVESTYLE($,$,$,#1472);
#1474=IFCPRESENTATIONSTYLEASSIGNMENT((#1473));
#1475=IFCSTYLEDITEM(#1471,(#1474),$);
#1476=IFCCARTESIANPOINT((-4208.4999999999864,9435.0061832160645));
#1477=IFCCARTESIANPOINT((-4208.5000000000064,-2625.072821822765));
#1478=IFCPOLYLINE((#1476,#1477));
#1479=IFCGRIDAXIS('7',#1478,.T.);
#1480=IFCGEOMETRICCURVESET((#1478));
#1481=IFCCOLOURRGB($,0.,0.,0.);
#1482=IFCCURVESTYLE($,$,$,#1481);
#1483=IFCPRESENTATIONSTYLEASSIGNMENT((#1482));
#1484=IFCSTYLEDITEM(#1480,(#1483),$);
#1485=IFCCARTESIANPOINT((62.,7650.8051367088028));
#1486=IFCCARTESIANPOINT((62.,-1100.4316020733406));
#1487=IFCPOLYLINE((#1485,#1486));
#1488=IFCGRIDAXIS('23',#1487,.T.);
#1489=IFCGEOMETRICCURVESET((#1487));
#1490=IFCCOLOURRGB($,0.,0.,0.);
#1491=IFCCURVESTYLE($,$,$,#1490);
#1492=IFCPRESENTATIONSTYLEASSIGNMENT((#1491));
#1493=IFCSTYLEDITEM(#1489,(#1492),$);
#1494=IFCCARTESIANPOINT((-62.,7650.8051367088028));
#1495=IFCCARTESIANPOINT((-62.,-1100.4316020733406));
#1496=IFCPOLYLINE((#1494,#1495));
#1497=IFCGRIDAXIS('24',#1496,.T.);
#1498=IFCGEOMETRICCURVESET((#1496));
#1499=IFCCOLOURRGB($,0.,0.,0.);
#1500=IFCCURVESTYLE($,$,$,#1499);
#1501=IFCPRESENTATIONSTYLEASSIGNMENT((#1500));
#1502=IFCSTYLEDITEM(#1498,(#1501),$);
#1503=IFCCARTESIANPOINT((-3848.4999999999936,9435.0061832160645));
#1504=IFCCARTESIANPOINT((-3848.5000000000132,-2625.072821822765));
#1505=IFCPOLYLINE((#1503,#1504));
#1506=IFCGRIDAXIS('26',#1505,.T.);
#1507=IFCGEOMETRICCURVESET((#1505));
#1508=IFCCOLOURRGB($,0.,0.,0.);
#1509=IFCCURVESTYLE($,$,$,#1508);
#1510=IFCPRESENTATIONSTYLEASSIGNMENT((#1509));
#1511=IFCSTYLEDITEM(#1507,(#1510),$);
#1512=IFCCARTESIANPOINT((3848.500000000005,9435.0061832160518));
#1513=IFCCARTESIANPOINT((3848.4999999999854,-2625.0728218227782));
#1514=IFCPOLYLINE((#1512,#1513));
#1515=IFCGRIDAXIS('27',#1514,.T.);
#1516=IFCGEOMETRICCURVESET((#1514));
#1517=IFCCOLOURRGB($,0.,0.,0.);
#1518=IFCCURVESTYLE($,$,$,#1517);
#1519=IFCPRESENTATIONSTYLEASSIGNMENT((#1518));
#1520=IFCSTYLEDITEM(#1516,(#1519),$);
#1521=IFCCARTESIANPOINT((1322.,-152400.));
#1522=IFCCARTESIANPOINT((1322.,152400.));
#1523=IFCPOLYLINE((#1521,#1522));
#1524=IFCGRIDAXIS('13',#1523,.T.);
#1525=IFCGEOMETRICCURVESET((#1523));
#1526=IFCCOLOURRGB($,0.,0.,0.);
#1527=IFCCURVESTYLE($,$,$,#1526);
#1528=IFCPRESENTATIONSTYLEASSIGNMENT((#1527));
#1529=IFCSTYLEDITEM(#1525,(#1528),$);
#1530=IFCCARTESIANPOINT((1531.5000000001664,-152400.));
#1531=IFCCARTESIANPOINT((1531.4999999997635,152400.));
#1532=IFCPOLYLINE((#1530,#1531));
#1533=IFCGRIDAXIS('14',#1532,.T.);
#1534=IFCGEOMETRICCURVESET((#1532));
#1535=IFCCOLOURRGB($,0.,0.,0.);
#1536=IFCCURVESTYLE($,$,$,#1535);
#1537=IFCPRESENTATIONSTYLEASSIGNMENT((#1536));
#1538=IFCSTYLEDITEM(#1534,(#1537),$);
#1539=IFCSHAPEREPRESENTATION(#26,'FootPrint','GeometricCurveSet',(#1399,#1408,#1417,#1426,#1435,#1444,#1453,#1462,#1471,#1480,#1489,#1498,#1507,#1516,#1525,#1534));
#1540=IFCPRODUCTDEFINITIONSHAPE($,$,(#1539));
#1541=IFCLOCALPLACEMENT(#30,#65);
#1542=IFCGRID('0IYPceZai$nWzkY8qZtWD_',#18,'Default Grid',$,$,#1541,#1540,(#1398,#1407,#1416,#1425,#1434,#1443,#1452,#1461),(#1470,#1479,#1488,#1497,#1506,#1515),(#1524,#1533));
#1543=IFCPROPERTYSINGLEVALUE('Name',$,IFCLABEL('Pipe depth (hot)'),$);
#1544=IFCPROPERTYSET('2D_RQueLFLyeINHtNzCoPs',#18,'Pset_AirSideSystemInformation',$,(#1543));
#1545=IFCPROPERTYSINGLEVALUE('AboveGround',$,IFCLOGICAL(.U.),$);
#1546=IFCPROPERTYSET('28QbINklGpwmwL5fKIqVA3',#18,'Pset_BuildingStoreyCommon',$,(#1545));
#1547=IFCPROPERTYSINGLEVALUE('Name',$,IFCLABEL('Pipe depth (hot)'),$);
#1548=IFCPROPERTYSET('19vS606QWv4VZvMhWO6JGV',#18,'Pset_ProductRequirements',$,(#1547));
#1549=IFCRELDEFINESBYPROPERTIES('0RrZ6ipeSRk$c0zOKA_fnI',#18,$,$,(#36),#1544);
#1550=IFCRELDEFINESBYPROPERTIES('2rBpnBuxIbnlP4FXM0TwvC',#18,$,$,(#36),#1546);
#1551=IFCRELDEFINESBYPROPERTIES('0Ad1lJNRiewXgmnnt0gAlZ',#18,$,$,(#36),#1548);
#1552=IFCRELCONTAINEDINSPATIALSTRUCTURE('2c5hkFSOXEP8ALkEirt$4X',#18,$,$,(#358),#36);
#1553=IFCPROPERTYSINGLEVALUE('Name',$,IFCLABEL('Pipe depth (cold)'),$);
#1554=IFCPROPERTYSET('09DG4wYOZXd8iUtiLzzXK8',#18,'Pset_AirSideSystemInformation',$,(#1553));
#1555=IFCPROPERTYSET('3_ZlPR8Yg3zKmgR9O2EfpX',#18,'Pset_BuildingStoreyCommon',$,(#1545));
#1556=IFCPROPERTYSINGLEVALUE('Name',$,IFCLABEL('Pipe depth (cold)'),$);
#1557=IFCPROPERTYSET('2KArMNWkej4QIGoAjHzQWj',#18,'Pset_ProductRequirements',$,(#1556));
#1558=IFCRELDEFINESBYPROPERTIES('1otyUyAOMlyrYMr$QByJgK',#18,$,$,(#40),#1554);
#1559=IFCRELDEFINESBYPROPERTIES('0b0aMD4ZnlVyf$96yXuJEP',#18,$,$,(#40),#1555);
#1560=IFCRELDEFINESBYPROPERTIES('2r7tQXKWi_1BoieQBI6HRl',#18,$,$,(#40),#1557);
#1561=IFCRELCONTAINEDINSPATIALSTRUCTURE('2c5hkFSOXEP8ALkEirt$4j',#18,$,$,(#506),#40);
#1562=IFCPROPERTYSINGLEVALUE('Name',$,IFCLABEL('L1'),$);
#1563=IFCPROPERTYSET('2l4vqu11LCaZAypUbzwyea',#18,'Pset_AirSideSystemInformation',$,(#1562));
#1564=IFCPROPERTYSET('16L50AfyZF4hYq5TGET4H4',#18,'Pset_BuildingStoreyCommon',$,(#1545));
#1565=IFCPROPERTYSINGLEVALUE('Name',$,IFCLABEL('L1'),$);
#1566=IFCPROPERTYSET('0Fxv$pCHYe$d1NPq668uup',#18,'Pset_ProductRequirements',$,(#1565));
#1567=IFCRELDEFINESBYPROPERTIES('3NFes7CBV81H0RHVpWu5ZF',#18,$,$,(#43),#1563);
#1568=IFCRELDEFINESBYPROPERTIES('2VdfSfkgzGoZi_3SgzE8$0',#18,$,$,(#43),#1564);
#1569=IFCRELDEFINESBYPROPERTIES('0Vxl9G1EBUZpUdM$cyum7J',#18,$,$,(#43),#1566);
#1570=IFCRELCONTAINEDINSPATIALSTRUCTURE('2c5hkFSOXEP8ALkEirt$4P',#18,$,$,(#110,#156,#179,#202,#654),#43);
#1571=IFCPROPERTYSINGLEVALUE('Name',$,IFCLABEL('Receptacle level'),$);
#1572=IFCPROPERTYSET('24pLwc8ssn26_fF$42O6IE',#18,'Pset_AirSideSystemInformation',$,(#1571));
#1573=IFCPROPERTYSET('3mCGhwYRVBRmc5BZoDiPbC',#18,'Pset_BuildingStoreyCommon',$,(#1545));
#1574=IFCPROPERTYSINGLEVALUE('Name',$,IFCLABEL('Receptacle level'),$);
#1575=IFCPROPERTYSET('2B83O7F$S$Oe4sQt_blrf1',#18,'Pset_ProductRequirements',$,(#1574));
#1576=IFCRELDEFINESBYPROPERTIES('0SeRhtNGe8I9fP82XEbS8f',#18,$,$,(#47),#1572);
#1577=IFCRELDEFINESBYPROPERTIES('2uGC_kPEb2NbHYerO6iOVy',#18,$,$,(#47),#1573);
#1578=IFCRELDEFINESBYPROPERTIES('1BP5Ck5HJqBc3DIFNWXbKH',#18,$,$,(#47),#1575);
#1579=IFCRELCONTAINEDINSPATIALSTRUCTURE('2c5hkFSOXEP8ALkEirt$45',#18,$,$,(#802),#47);
#1580=IFCPROPERTYSINGLEVALUE('Name',$,IFCLABEL('Sink height'),$);
#1581=IFCPROPERTYSET('3$4u_7xgFweUxHV7ZbpXXj',#18,'Pset_AirSideSystemInformation',$,(#1580));
#1582=IFCPROPERTYSET('3140WsNM4zCH5FJ4YZNXkE',#18,'Pset_BuildingStoreyCommon',$,(#1545));
#1583=IFCPROPERTYSINGLEVALUE('Name',$,IFCLABEL('Sink height'),$);
#1584=IFCPROPERTYSET('3qrloMjX8MGbsp$8lF7xlm',#18,'Pset_ProductRequirements',$,(#1583));
#1585=IFCRELDEFINESBYPROPERTIES('1iZc27MdvkX9Wf1wDA72Gf',#18,$,$,(#51),#1581);
#1586=IFCRELDEFINESBYPROPERTIES('0w2mNcI8PJ07miu905JQGS',#18,$,$,(#51),#1582);
#1587=IFCRELDEFINESBYPROPERTIES('1yMcYutjSx2MUCHq76K2DA',#18,$,$,(#51),#1584);
#1588=IFCRELCONTAINEDINSPATIALSTRUCTURE('2c5hkFSOXEP8ALkEirt$5n',#18,$,$,(#950),#51);
#1589=IFCPROPERTYSINGLEVALUE('Name',$,IFCLABEL('Switch level'),$);
#1590=IFCPROPERTYSET('2M5Vj50zN_wCgknIQsswMd',#18,'Pset_AirSideSystemInformation',$,(#1589));
#1591=IFCPROPERTYSET('1BRzhwWkv$AoZ4Cu5lkC3B',#18,'Pset_BuildingStoreyCommon',$,(#1545));
#1592=IFCPROPERTYSINGLEVALUE('Name',$,IFCLABEL('Switch level'),$);
#1593=IFCPROPERTYSET('1uVGEe1BvAOgyYE6bUJKyK',#18,'Pset_ProductRequirements',$,(#1592));
#1594=IFCRELDEFINESBYPROPERTIES('1CMWr89LqKVzeWc7nM_s23',#18,$,$,(#55),#1590);
#1595=IFCRELDEFINESBYPROPERTIES('3ZSOeAodyu0oP4OgBIx_ek',#18,$,$,(#55),#1591);
#1596=IFCRELDEFINESBYPROPERTIES('39zZSdEzRPiLR95MUmUWc8',#18,$,$,(#55),#1593);
#1597=IFCRELCONTAINEDINSPATIALSTRUCTURE('2c5hkFSOXEP8ALkEirt$5z',#18,$,$,(#1098),#55);
#1598=IFCPROPERTYSINGLEVALUE('Name',$,IFCLABEL('L3'),$);
#1599=IFCPROPERTYSET('1eU_OJg7ME1TF_E3IfHH9P',#18,'Pset_AirSideSystemInformation',$,(#1598));
#1600=IFCPROPERTYSET('1jjZ3s1Cfy1IWVihDO98Uc',#18,'Pset_BuildingStoreyCommon',$,(#1545));
#1601=IFCPROPERTYSINGLEVALUE('Name',$,IFCLABEL('L3'),$);
#1602=IFCPROPERTYSET('0b_sv3e9ZV0hm93CWVT6ib',#18,'Pset_ProductRequirements',$,(#1601));
#1603=IFCRELDEFINESBYPROPERTIES('0jyrdgsM0ZOfBW6WRjmAq8',#18,$,$,(#59),#1599);
#1604=IFCRELDEFINESBYPROPERTIES('1R008f80nlE$9EVbwCswgU',#18,$,$,(#59),#1600);
#1605=IFCRELDEFINESBYPROPERTIES('1aJiU2bi$$qMq4RuytbkJC',#18,$,$,(#59),#1602);
#1606=IFCRELCONTAINEDINSPATIALSTRUCTURE('2c5hkFSOXEP8ALkEirt$5f',#18,$,$,(#1246),#59);
#1607=IFCPROPERTYSINGLEVALUE('Name',$,IFCLABEL('L2'),$);
#1608=IFCPROPERTYSET('2rmMSkA7gc4STb1LnLF8UH',#18,'Pset_AirSideSystemInformation',$,(#1607));
#1609=IFCPROPERTYSET('1n34enW33Z_3Qq2Pm1kjQZ',#18,'Pset_BuildingStoreyCommon',$,(#1545));
#1610=IFCPROPERTYSINGLEVALUE('Name',$,IFCLABEL('L2'),$);
#1611=IFCPROPERTYSET('3b2aIDv9vaOvbWU0hVWzaG',#18,'Pset_ProductRequirements',$,(#1610));
#1612=IFCRELDEFINESBYPROPERTIES('1kaSOYlg8iono8iflzrHRz',#18,$,$,(#63),#1608);
#1613=IFCRELDEFINESBYPROPERTIES('36oM8gyLQ5_Z6XoGK5uP1E',#18,$,$,(#63),#1609);
#1614=IFCRELDEFINESBYPROPERTIES('2r$5AllCk4VpjESRla$JzH',#18,$,$,(#63),#1611);
#1615=IFCRELCONTAINEDINSPATIALSTRUCTURE('2c5hkFSOXEP8ALkEirt$5L',#18,$,$,(#1394),#63);
#1616=IFCPROPERTYSINGLEVALUE('Name',$,IFCLABEL('Pipe height'),$);
#1617=IFCPROPERTYSET('2mowrSy8R7Hhe2imLAYcxh',#18,'Pset_AirSideSystemInformation',$,(#1616));
#1618=IFCPROPERTYSET('2fxa48pNYAywRzAtFo4Jif',#18,'Pset_BuildingStoreyCommon',$,(#1545));
#1619=IFCPROPERTYSINGLEVALUE('Name',$,IFCLABEL('Pipe height'),$);
#1620=IFCPROPERTYSET('21ABK$Ku_KwiPoBWMeuJ$n',#18,'Pset_ProductRequirements',$,(#1619));
#1621=IFCRELDEFINESBYPROPERTIES('3gKzmf7pjyk3Cc$Qkge8GL',#18,$,$,(#67),#1617);
#1622=IFCRELDEFINESBYPROPERTIES('0u6pRKPutqs5mkUPmEjpRu',#18,$,$,(#67),#1618);
#1623=IFCRELDEFINESBYPROPERTIES('34dIsnIjVOOygDj_NDQvhR',#18,$,$,(#67),#1620);
#1624=IFCRELCONTAINEDINSPATIALSTRUCTURE('2c5hkFSOXEP8ALkEirt$51',#18,$,$,(#1542),#67);
#1625=IFCRELAGGREGATES('3cptXMcCZbfpGRYzKvFC6p',#18,$,$,#27,(#70));
#1626=IFCRELAGGREGATES('19khgLdEWJf5wLlrZis4p$',#18,$,$,#70,(#32));
#1627=IFCRELAGGREGATES('1yhDISh1T5aQqAoygxGIhP',#18,$,$,#32,(#36,#40,#43,#47,#51,#55,#59,#63,#67));
#1628=IFCPROPERTYSINGLEVALUE('NumberOfStoreys',$,IFCINTEGER(3),$);
#1629=IFCPROPERTYSINGLEVALUE('IsLandmarked',$,IFCLOGICAL(.U.),$);
#1630=IFCPROPERTYSET('3ma1wWoQPhdkYlR7Ds$3uN',#18,'Pset_BuildingCommon',$,(#1628,#1629));
#1631=IFCRELDEFINESBYPROPERTIES('2HJbEZ$DXnaSYRcuTgiGIW',#18,$,$,(#32),#1630);
#1632=IFCRELASSOCIATESMATERIAL('3DltBxTVx_Xs3fdDcJu_9d',#18,$,$,(#110),#118);
#1633=IFCRELASSOCIATESMATERIAL('0nS1fP9zWnNh5tRMJOtlh$',#18,$,$,(#156),#157);
#1634=IFCRELASSOCIATESMATERIAL('13UytmfuuOixqnKyU_Wdie',#18,$,$,(#179),#180);
#1635=IFCRELASSOCIATESMATERIAL('0SVPfasf6TElLpmVqqhytp',#18,$,$,(#202),#203);
#1636=IFCRELASSOCIATESMATERIAL('3TmNKy_bEA0o2T3EFAMHYW',#18,$,$,(#119),#117);
#1637=IFCRELDEFINESBYTYPE('39hyeX66APUJICXFbKg1Rj',#18,$,$,(#110,#156,#179,#202),#119);
#1638=IFCRELCONNECTSPATHELEMENTS('3e2cyMqKbIl3msl3_tRc2v',#18,'3S3VgMDFLDiPHeIJPk5HTj|20rBv4HojAY8M3avWLHAgu','Structural',$,#110,#179,(),(),.ATEND.,.ATSTART.);
#1639=IFCRELCONNECTSPATHELEMENTS('0rYmA5LPC13GtvPdZ9$1U4',#18,'3S3VgMDFLDiPHeIJPk5HTj|3S3VgMDFLDiPHeIJPk5HSc','Structural',$,#110,#156,(),(),.ATSTART.,.ATEND.);
#1640=IFCRELCONNECTSPATHELEMENTS('2UiqxuP0ISV27COg56QC2N',#18,'3S3VgMDFLDiPHeIJPk5HSc|20rBv4HojAY8M3avWLHAad','Structural',$,#156,#202,(),(),.ATSTART.,.ATEND.);
#1641=IFCRELCONNECTSPATHELEMENTS('0E908UtV_myZFiMHqcXO9Y',#18,'20rBv4HojAY8M3avWLHAgu|20rBv4HojAY8M3avWLHAad','Structural',$,#179,#202,(),(),.ATEND.,.ATSTART.);
#1642=IFCPRESENTATIONLAYERASSIGNMENT('A-WALL',$,(#96,#108,#147,#154,#170,#177,#193,#200),$);
#1643=IFCPRESENTATIONLAYERASSIGNMENT('S-GRID',$,(#355,#503,#651,#799,#947,#1095,#1243,#1391,#1539),$);
#1644=IFCUNITASSIGNMENT((#19,#97,#139));
ENDSEC;

END-ISO-10303-21;